<svg xmlns="http://www.w3.org/2000/svg" width="3171.429" height="1877.113" viewBox="0 0 3171.429 1600"><g fill="#fafbfd"><path d="m1644.383 708.385 60-104 181.334 312h120c-26.667-42.667-280-476.001-301.334-518.668l-261.334 453.335-97.334 169.334h-360c20-33.334 154.666-268.001 284-493.335 76-132 160-280.001 254.667-441.335h120l-248 429.335-230.667 401.334h120c164-289.334 266.668-460.001 418.668-726.669 9.333 16 478.668 829.336 481.335 830.67h-360.001zM333.431 1514.31l-23.132-65.673H176.502l-23.121 65.674H85.698l117.254-318.474h80.885l117.266 318.474h-67.66zm-137.52-121h94.99l-47.393-135.105zm253.003 121v-318.473h66.125v318.474zm333.03-260.28H663.8v72.286h104.695v57.527H663.81v72.072h118.135v58.396H597.256v-318.452h184.689zm173.879 264.693c-68.326 0-121.655-32.837-131.36-92.564l68.326-15.652c4.401 35.704 30.626 54.221 65.674 54.221 26.89 0 48.263-11.905 48.049-38.795-.226-29.97-35.49-39.45-74.273-51.343-46.717-14.557-96.75-31.743-96.75-90.375 0-59.276 48.476-92.78 112.39-92.78 55.98 0 112.402 22.693 125.187 83.752l-63.914 15.866c-5.947-31.743-27.33-45.622-57.301-45.622-26.665 0-49.369 11.013-49.369 37.238 0 24.475 31.303 32.622 67.446 43.421 48.048 14.557 104.91 33.063 104.91 96.537 0 67.66-56.647 96.096-119.015 96.096m364.762-322.886v58.181h-75.604v260.293h-65.449v-260.293H1103.5v-58.181zm263.147 318.474-23.144-65.674h-133.774l-23.132 65.674h-67.672l117.254-318.474h80.886l117.254 318.474zm-137.52-121h94.99l-47.393-135.106zm437.703-197.474v58.181h-75.604v260.293h-65.449v-260.293h-76.033v-58.181zm234.711 58.192h-118.123v72.287h104.684v57.527h-104.684v72.072h118.134v58.396H1933.95v-318.452h184.688zm268.88-58.192h66.125v318.474h-66.125v-130.92H2252.84v130.92h-66.125v-318.474h66.125v130.028h134.666zm266.465 322.886c-69.86 0-124.521-35.703-124.521-115.923v-206.952h66.125v197.914c0 48.488 25.785 66.554 58.396 66.554 32.837 0 58.847-18.292 58.847-66.554v-197.925h66.126v206.952c0 80.23-54.887 115.934-124.973 115.934m371.815-172.57c35.917 9.92 59.941 33.503 59.941 78.9 0 53.78-32.611 89.258-99.842 89.258H2854.75v-318.474h103.138c68.766 0 104.92 33.062 104.92 87.283 0 27.985-12.13 50.914-37.035 63.034zm-67.232-95.43h-40.104v74.927h42.97c28.211 0 40.556-16.746 40.556-38.343 0-21.158-13.88-36.584-43.422-36.584m14.986 206.952c35.703 0 48.048-19.183 48.048-39.9 0-21.158-12.12-41.21-49.368-41.21h-53.781v81.11z"/></g></svg>