<svg xmlns="http://www.w3.org/2000/svg" version="1.1" xmlns:xlink="http://www.w3.org/1999/xlink" xmlns:svgjs="http://svgjs.dev/svgjs" viewBox="0 0 800 800"><defs><linearGradient x1="50%" y1="0%" x2="50%" y2="100%" id="ccchaos-grad"><stop stop-color="#cacce7" stop-opacity="1" offset="0%"></stop><stop stop-color="#5786b3" stop-opacity="1" offset="100%"></stop></linearGradient></defs><g stroke-width="3" stroke="url(#ccchaos-grad)" fill="none" stroke-linecap="round"><path d="M389.52 69.23C400.37 71.05 411.09 73.8 421.64 77.3 432.2 80.94 442.62 85.07 452.86 89.55 463.13 93.8 473.26 98.19 483.25 102.63 493.28 106.61 503.2 110.58 513 114.53 522.89 118 532.71 121.51 542.45 125.1 552.31 128.36 562.12 131.85 571.88 135.62 581.77 139.28 591.6 143.37 601.35 147.92 611.19 152.55 620.9 157.75 630.4 163.53 639.9 169.49 649.1 176.06 657.88 183.21 666.49 190.58 674.54 198.51 681.92 206.95 688.92 215.58 695.09 224.68 700.35 234.16 705.07 243.79 708.79 253.75 711.47 263.99 713.62 274.32 714.77 284.88 714.98 295.6 714.88 306.38 714.04 317.29 712.57 328.28 711.2 339.29 709.51 350.37 707.65 361.46 706.33 372.56 705.11 383.66 704.08 394.72 703.87 405.79 703.92 416.54 704.2 426.97 705.17 437.39 706.17 447.48 707.07 457.23 708.3 466.99 709.13 476.41 709.45 485.51 709.67 494.63 709.11 503.46 707.69 512 705.87 520.63 703.07 529.03 699.3 537.24 695.01 545.61 689.77 553.88 683.63 562.07 677.05 570.54 669.69 579.02 661.66 587.54 653.35 596.42 644.51 605.39 635.24 614.46 625.87 623.87 616.19 633.35 606.28 642.83 596.4 652.51 586.36 662.04 576.22 671.28 566.16 680.42 556.03 689.02 545.83 696.91 535.74 704.3 525.59 710.7 515.37 715.95 505.24 720.39 495.02 723.53 484.73 725.3 474.49 726.25 464.14 725.91 453.7 724.38 443.28 722.39 432.74 719.56 422.09 716.11 411.45 712.88 400.69 709.5 389.83 706.21 378.97 703.8 368.27 701.86 357.74 700.45 347.22 700.09 336.89 700.17 326.77 700.59 316.66 701.74 306.78 702.87 297.15 703.79 287.53 704.86 278.17 705.32 269.1 705.02 260.04 704.34 251.26 702.63 242.8 699.84 234.34 696.4 226.19 691.82 218.36 686.16 210.5 679.87 202.95 672.6 195.71 664.49 188.42 655.94 181.42 646.74 174.73 637.01 167.94 627.09 161.44 616.82 155.22 606.32 148.9 595.82 142.85 585.19 137.09 574.51 131.22 563.93 125.65 553.34 120.4 542.75 115.06 532.3 110.07 521.84 105.46 511.38 100.81 501.04 96.58 490.66 92.82 480.24 89.07 469.89 85.83 459.45 83.14 448.92 80.52 438.43 78.49 427.81 77.08 417.09 75.79 406.37 75.15 395.52 75.18 384.56 75.34 373.59 76.17 362.78 77.63 352.14 79.19 341.51 81.34 331.07 84.05 320.87 86.8 310.69 90.07 300.77 93.81 291.16 97.52 281.59 101.67 272.36 106.2 263.5 110.66 254.71 115.48 246.32 120.63 238.35 125.66 230.45 131.01 222.98 136.67 215.96 142.2 208.97 148.03 202.39 154.16 196.21 160.19 189.99 166.53 184.09 173.17 178.5 179.75 172.73 186.66 167.16 193.89 161.76 201.1 156.05 208.65 150.41 216.52 144.81 224.4 138.82 232.62 132.83 241.16 126.86 249.72 120.53 258.6 114.27 267.77 108.16 276.97 101.87 286.45 95.88 296.19 90.34 305.94 84.92 315.94 80.15 326.15 76.18 336.37 72.63 346.78 70.06 357.35 68.57 367.93 67.67 378.66 67.88 389.51 69.22" stroke-dasharray="0 4" transform="rotate(0, 400, 400)" opacity="0.49"></path><path d="M389.61 80.6C400.08 82.38 410.44 85.04 420.67 88.44 430.91 91.97 441.03 96 451.02 100.39 461.04 104.57 470.94 108.93 480.73 113.36 490.57 117.38 500.32 121.4 509.97 125.41 519.7 128.97 529.37 132.56 538.97 136.21 548.67 139.53 558.32 143.02 567.89 146.75 577.57 150.33 587.16 154.27 596.63 158.61 606.16 162.97 615.51 167.84 624.62 173.22 633.67 178.74 642.38 184.82 650.65 191.44 658.72 198.25 666.21 205.59 673.02 213.42 679.46 221.42 685.1 229.89 689.85 238.74 694.12 247.74 697.45 257.09 699.8 266.73 701.7 276.47 702.7 286.45 702.82 296.61 702.71 306.84 701.92 317.22 700.57 327.7 699.33 338.21 697.81 348.8 696.12 359.42 694.93 370.06 693.82 380.71 692.85 391.35 692.64 401.99 692.64 412.34 692.82 422.41 693.65 432.47 694.49 442.24 695.24 451.71 696.31 461.19 697.03 470.39 697.29 479.31 697.49 488.27 697 496.99 695.74 505.48 694.14 514.06 691.65 522.48 688.26 530.75 684.41 539.19 679.66 547.57 674.07 555.9 668.06 564.49 661.28 573.11 653.84 581.77 646.11 590.73 637.82 599.77 629.08 608.85 620.21 618.2 610.99 627.56 601.5 636.85 592 646.23 582.3 655.4 572.47 664.21 562.69 672.84 552.8 680.88 542.84 688.18 532.96 694.96 523.01 700.77 513 705.45 503.06 709.39 493.05 712.09 482.97 713.52 472.95 714.21 462.83 713.73 452.64 712.16 442.48 710.21 432.23 707.5 421.89 704.22 411.56 701.16 401.14 697.97 390.65 694.84 380.16 692.51 369.84 690.6 359.72 689.15 349.59 688.67 339.66 688.59 329.95 688.82 320.25 689.75 310.77 690.68 301.54 691.45 292.31 692.42 283.34 692.87 274.65 692.65 265.96 692.16 257.54 690.75 249.42 688.36 241.29 685.42 233.44 681.42 225.9 676.4 218.32 670.8 211.02 664.25 204.02 656.87 196.95 649.04 190.15 640.52 183.64 631.45 177.04 622.13 170.7 612.4 164.63 602.38 158.45 592.3 152.53 582.03 146.9 571.65 141.16 561.32 135.71 550.94 130.57 540.53 125.35 530.22 120.47 519.89 115.96 509.56 111.42 499.33 107.28 489.06 103.6 478.78 99.94 468.56 96.78 458.29 94.15 447.97 91.6 437.68 89.62 427.31 88.25 416.87 87 406.44 86.37 395.93 86.41 385.35 86.58 374.77 87.4 364.37 88.83 354.19 90.36 344.01 92.48 334.05 95.13 324.35 97.83 314.67 101.03 305.26 104.69 296.16 108.33 287.11 112.39 278.38 116.83 270.03 121.19 261.72 125.91 253.78 130.94 246.25 135.87 238.76 141.11 231.66 146.62 224.96 152.02 218.25 157.71 211.91 163.68 205.91 169.54 199.82 175.7 194.01 182.14 188.45 188.5 182.69 195.18 177.09 202.15 171.62 209.08 165.84 216.34 160.11 223.9 154.42 231.45 148.36 239.32 142.32 247.49 136.33 255.66 130.02 264.15 123.82 272.92 117.8 281.7 111.65 290.76 105.84 300.06 100.49 309.39 95.28 318.95 90.73 328.73 86.97 338.51 83.62 348.5 81.22 358.65 79.85 368.81 79.03 379.14 79.28 389.6 80.6" stroke-dasharray="5 5" transform="rotate(3.518518518518518, 400, 400)" opacity="0.87"></path><path d="M390.21 91.97C400.3 93.71 410.32 96.28 420.23 99.56 430.15 102.99 439.99 106.91 449.72 111.19 459.47 115.31 469.14 119.62 478.72 124.03 488.34 128.07 497.89 132.13 507.36 136.2 516.9 139.84 526.38 143.51 535.79 147.22 545.28 150.6 554.71 154.12 564.05 157.84 573.45 161.36 582.75 165.2 591.89 169.38 601.04 173.53 609.99 178.12 618.65 183.17 627.23 188.3 635.43 193.95 643.16 200.09 650.68 206.37 657.61 213.16 663.87 220.42 669.76 227.83 674.89 235.68 679.18 243.93 683.02 252.31 685.99 261.05 688.07 270.09 689.75 279.22 690.6 288.61 690.67 298.21 690.56 307.87 689.83 317.71 688.6 327.67 687.5 337.66 686.13 347.75 684.6 357.9 683.54 368.07 682.52 378.27 681.62 388.49 681.41 398.7 681.36 408.68 681.46 418.4 682.15 428.13 682.84 437.6 683.44 446.82 684.36 456.06 684.97 465.07 685.16 473.84 685.34 482.66 684.89 491.29 683.75 499.74 682.34 508.3 680.12 516.73 677.07 525.06 673.63 533.56 669.34 542.02 664.25 550.45 658.78 559.12 652.57 567.81 645.7 576.54 638.55 585.51 630.83 594.52 622.64 603.53 614.29 612.74 605.57 621.88 596.54 630.89 587.47 639.91 578.17 648.65 568.7 656.98 559.25 665.06 549.67 672.53 540 679.23 530.39 685.41 520.68 690.63 510.92 694.78 501.21 698.24 491.44 700.54 481.61 701.66 471.82 702.13 461.96 701.53 452.04 699.94 442.15 698.04 432.18 695.46 422.16 692.34 412.15 689.46 402.06 686.44 391.93 683.46 381.8 681.23 371.85 679.34 362.1 677.86 352.36 677.28 342.81 677.04 333.49 677.09 324.17 677.81 315.07 678.54 306.22 679.15 297.37 680 288.76 680.41 280.42 680.25 272.08 679.89 263.99 678.73 256.18 676.69 248.35 674.18 240.79 670.71 233.51 666.29 226.18 661.34 219.12 655.49 212.33 648.82 205.47 641.7 198.87 633.89 192.53 625.49 186.09 616.82 179.91 607.7 173.98 598.23 167.94 588.65 162.16 578.82 156.65 568.83 151.04 558.85 145.71 548.76 140.68 538.62 135.58 528.54 130.81 518.42 126.41 508.29 121.98 498.23 117.94 488.14 114.35 478.05 110.79 468.01 107.71 457.94 105.15 447.84 102.67 437.78 100.74 427.67 99.41 417.53 98.2 407.39 97.6 397.22 97.64 387.01 97.81 376.81 98.62 366.82 100.02 357.07 101.52 347.32 103.59 337.82 106.19 328.58 108.83 319.36 111.96 310.43 115.53 301.81 119.1 293.21 123.07 284.94 127.4 277.03 131.68 269.14 136.29 261.61 141.21 254.45 146.03 247.3 151.15 240.5 156.54 234.05 161.81 227.57 167.36 221.4 173.18 215.52 178.88 209.52 184.87 203.76 191.12 198.2 197.28 192.42 203.74 186.77 210.47 181.22 217.16 175.37 224.14 169.56 231.41 163.8 238.65 157.7 246.19 151.64 254.02 145.65 261.85 139.39 269.96 133.28 278.34 127.38 286.73 121.39 295.39 115.77 304.3 110.63 313.2 105.65 322.35 101.32 331.72 97.77 341.09 94.62 350.66 92.38 360.42 91.13 370.17 90.4 380.11 90.68 390.2 91.97" stroke-dasharray="3 4" transform="rotate(7.037037037037036, 400, 400)" opacity="0.24"></path><path d="M391.29 103.35C401.01 105.03 410.69 107.51 420.28 110.68 429.89 114 439.43 117.8 448.89 121.98 458.37 126.01 467.79 130.26 477.14 134.64 486.52 138.68 495.84 142.77 505.09 146.88 514.4 150.59 523.65 154.33 532.83 158.11 542.06 161.56 551.21 165.12 560.25 168.84 569.33 172.35 578.28 176.12 587.03 180.18 595.77 184.17 604.27 188.54 612.45 193.31 620.53 198.12 628.2 203.39 635.39 209.1 642.35 214.92 648.73 221.21 654.46 227.94 659.84 234.8 664.48 242.08 668.33 249.75 671.79 257.53 674.44 265.67 676.26 274.12 677.76 282.65 678.5 291.46 678.54 300.5 678.43 309.59 677.78 318.88 676.66 328.32 675.69 337.78 674.47 347.38 673.09 357.06 672.15 366.75 671.23 376.51 670.39 386.31 670.17 396.12 670.08 405.73 670.11 415.12 670.67 424.52 671.23 433.72 671.69 442.71 672.46 451.72 672.95 460.55 673.07 469.19 673.2 477.89 672.78 486.44 671.74 494.86 670.49 503.38 668.5 511.81 665.75 520.18 662.67 528.7 658.81 537.19 654.19 545.68 649.23 554.35 643.56 563.05 637.25 571.76 630.67 580.66 623.52 589.56 615.88 598.41 608.08 607.38 599.87 616.24 591.35 624.89 582.74 633.49 573.88 641.75 564.83 649.54 555.76 657.06 546.54 663.94 537.21 670.04 527.9 675.63 518.5 680.3 509.03 683.94 499.6 686.95 490.09 688.88 480.54 689.73 471.02 690.01 461.43 689.31 451.8 687.72 442.2 685.88 432.53 683.42 422.83 680.48 413.13 677.77 403.38 674.92 393.6 672.09 383.82 669.94 374.23 668.09 364.85 666.59 355.47 665.9 346.29 665.53 337.34 665.41 328.38 665.92 319.65 666.47 311.15 666.91 302.65 667.63 294.38 667.98 286.37 667.83 278.34 667.57 270.56 666.6 263.04 664.85 255.49 662.72 248.19 659.72 241.15 655.85 234.06 651.5 227.22 646.3 220.63 640.31 213.97 633.91 207.54 626.8 201.36 619.1 195.09 611.1 189.05 602.62 183.26 593.76 177.36 584.74 171.71 575.43 166.32 565.92 160.84 556.36 155.63 546.66 150.72 536.86 145.75 527.1 141.1 517.26 136.8 507.4 132.49 497.59 128.56 487.74 125.07 477.89 121.61 468.08 118.61 458.25 116.13 448.42 113.72 438.61 111.86 428.78 110.57 418.95 109.4 409.12 108.82 399.28 108.87 389.45 109.05 379.62 109.84 370.03 111.21 360.69 112.68 351.34 114.7 342.26 117.23 333.46 119.81 324.67 122.86 316.16 126.34 307.97 129.82 299.79 133.7 291.92 137.93 284.39 142.11 276.87 146.61 269.67 151.42 262.82 156.13 255.94 161.13 249.38 166.4 243.13 171.55 236.81 176.97 230.76 182.63 224.96 188.19 219.02 194.02 213.26 200.09 207.68 206.07 201.87 212.33 196.16 218.84 190.54 225.29 184.63 232.02 178.77 239.02 172.95 245.98 166.84 253.22 160.79 260.73 154.83 268.22 148.66 275.99 142.66 284.02 136.9 292.04 131.11 300.33 125.69 308.85 120.77 317.37 116.02 326.12 111.93 335.1 108.59 344.07 105.64 353.25 103.56 362.62 102.42 371.99 101.77 381.55 102.07 391.28 103.35" stroke-dasharray="4 7" transform="rotate(10.555555555555555, 400, 400)" opacity="0.09"></path><path d="M392.78 114.72C402.16 116.35 411.49 118.75 420.77 121.8 430.05 125 439.3 128.68 448.47 132.73 457.67 136.68 466.82 140.86 475.9 145.18 485.02 149.21 494.08 153.31 503.07 157.44 512.11 161.22 521.09 165.02 529.97 168.87 538.89 172.39 547.72 176 556.42 179.75 565.12 183.26 573.67 186.99 582 190.97 590.29 194.84 598.31 199.04 605.99 203.59 613.54 208.13 620.67 213.08 627.32 218.43 633.74 223.85 639.58 229.69 644.79 235.95 649.68 242.3 653.88 249.05 657.33 256.18 660.44 263.4 662.8 270.97 664.41 278.86 665.74 286.81 666.4 295.06 666.41 303.54 666.33 312.07 665.75 320.82 664.76 329.74 663.91 338.69 662.84 347.79 661.6 357 660.77 366.23 659.95 375.55 659.16 384.95 658.94 394.35 658.82 403.6 658.77 412.69 659.22 421.77 659.64 430.71 659.97 439.48 660.6 448.27 660.98 456.92 661.01 465.44 661.1 474.01 660.69 482.47 659.72 490.84 658.59 499.3 656.8 507.71 654.32 516.06 651.56 524.55 648.08 533.03 643.9 541.5 639.42 550.12 634.26 558.75 628.49 567.35 622.45 576.09 615.86 584.8 608.79 593.4 601.53 602.06 593.87 610.55 585.86 618.77 577.75 626.9 569.37 634.64 560.76 641.87 552.12 648.81 543.31 655.09 534.35 660.6 525.41 665.62 516.35 669.76 507.21 672.93 498.1 675.52 488.9 677.12 479.66 677.73 470.44 677.84 461.16 677.08 451.83 675.5 442.53 673.73 433.18 671.39 423.8 668.62 414.43 666.08 405.02 663.4 395.58 660.71 386.15 658.65 376.91 656.84 367.89 655.33 358.86 654.56 350.03 654.06 341.43 653.78 332.82 654.1 324.42 654.45 316.26 654.74 308.08 655.31 300.13 655.57 292.43 655.41 284.7 655.21 277.2 654.38 269.95 652.88 262.66 651.07 255.6 648.47 248.79 645.09 241.92 641.29 235.28 636.7 228.87 631.36 222.39 625.63 216.14 619.22 210.11 612.21 204 604.91 198.1 597.1 192.44 588.87 186.69 580.46 181.17 571.73 175.91 562.75 170.56 553.69 165.48 544.45 160.69 535.08 155.85 525.71 151.32 516.24 147.14 506.72 142.95 497.22 139.14 487.68 135.75 478.13 132.4 468.6 129.5 459.06 127.09 449.53 124.77 440.01 122.97 430.48 121.73 420.98 120.6 411.48 120.05 401.98 120.1 392.52 120.28 383.05 121.05 373.84 122.39 364.89 123.82 355.94 125.78 347.25 128.24 338.85 130.75 330.44 133.72 322.33 137.11 314.51 140.5 306.69 144.28 299.18 148.4 291.97 152.48 284.75 156.88 277.84 161.56 271.22 166.17 264.57 171.05 258.19 176.19 252.08 181.22 245.89 186.51 239.91 192.03 234.15 197.45 228.24 203.12 222.47 209.02 216.85 214.84 211.01 220.9 205.25 227.21 199.56 233.45 193.62 239.94 187.72 246.69 181.88 253.39 175.79 260.36 169.78 267.57 163.89 274.76 157.83 282.21 151.97 289.9 146.39 297.58 140.79 305.51 135.6 313.67 130.91 321.83 126.41 330.21 122.55 338.81 119.42 347.41 116.66 356.21 114.74 365.21 113.71 374.21 113.14 383.4 113.47 392.77 114.72" stroke-dasharray="3 1" transform="rotate(14.074074074074073, 400, 400)" opacity="0.46"></path><path d="M394.63 126.1C403.65 127.67 412.65 129.98 421.6 132.91 430.56 135.99 439.49 139.54 448.37 143.47 457.26 147.32 466.11 151.41 474.91 155.66 483.73 159.67 492.49 163.76 501.19 167.9 509.91 171.72 518.57 175.58 527.12 179.48 535.69 183.06 544.15 186.74 552.45 190.51 560.75 194.06 568.86 197.78 576.73 201.71 584.53 205.5 592.05 209.58 599.21 213.95 606.23 218.28 612.83 222.97 618.94 228.01 624.83 233.09 630.16 238.55 634.88 244.38 639.32 250.28 643.1 256.56 646.19 263.19 648.98 269.9 651.09 276.94 652.51 284.3 653.71 291.71 654.3 299.42 654.31 307.37 654.26 315.37 653.76 323.59 652.88 332.01 652.16 340.45 651.22 349.06 650.13 357.82 649.4 366.58 648.66 375.48 647.93 384.49 647.71 393.49 647.55 402.39 647.44 411.16 647.79 419.94 648.09 428.61 648.3 437.16 648.79 445.74 649.05 454.21 649 462.58 649.03 471.01 648.61 479.36 647.69 487.65 646.67 496.02 645.04 504.35 642.79 512.64 640.32 521.05 637.18 529.45 633.4 537.82 629.35 546.31 624.67 554.78 619.41 563.2 613.9 571.7 607.85 580.12 601.32 588.4 594.62 596.68 587.5 604.73 580.02 612.48 572.44 620.09 564.55 627.27 556.43 633.93 548.25 640.27 539.87 645.96 531.34 650.9 522.8 655.38 514.13 659.02 505.36 661.75 496.6 663.96 487.75 665.27 478.85 665.66 469.96 665.64 461.01 664.83 452.02 663.28 443.04 661.59 434.02 659.38 424.97 656.78 415.94 654.4 406.86 651.88 397.78 649.34 388.7 647.37 379.81 645.6 371.13 644.07 362.44 643.23 353.95 642.62 345.68 642.19 337.4 642.33 329.33 642.5 321.48 642.62 313.61 643.04 305.96 643.2 298.54 643.01 291.09 642.83 283.85 642.1 276.85 640.79 269.81 639.25 262.98 637 256.37 634.04 249.71 630.74 243.26 626.7 237.04 621.96 230.73 616.88 224.64 611.13 218.76 604.8 212.8 598.18 207.06 591.05 201.53 583.48 195.92 575.72 190.54 567.6 185.41 559.2 180.2 550.7 175.25 541.98 170.59 533.1 165.89 524.19 161.49 515.15 157.43 506.04 153.38 496.92 149.69 487.75 146.4 478.55 143.17 469.37 140.37 460.16 138.04 450.96 135.81 441.78 134.08 432.59 132.88 423.43 131.8 414.27 131.28 405.13 131.33 396.03 131.51 386.93 132.27 378.09 133.56 369.51 134.95 360.93 136.86 352.61 139.24 344.56 141.68 336.52 144.56 328.74 147.85 321.26 151.14 313.76 154.81 306.54 158.82 299.61 162.79 292.65 167.08 285.96 171.64 279.54 176.14 273.06 180.9 266.82 185.9 260.81 190.82 254.7 195.98 248.78 201.36 243.03 206.64 237.12 212.16 231.34 217.9 225.68 223.56 219.81 229.44 214.01 235.55 208.29 241.6 202.33 247.88 196.42 254.39 190.59 260.85 184.55 267.56 178.62 274.5 172.83 281.41 166.91 288.56 161.23 295.94 155.83 303.3 150.47 310.9 145.52 318.72 141.06 326.53 136.81 334.57 133.19 342.81 130.27 351.05 127.71 359.49 125.94 368.13 125.02 376.77 124.52 385.61 124.88 394.62 126.1" stroke-dasharray="6 6" transform="rotate(17.59259259259259, 400, 400)" opacity="0.85"></path><path d="M396.75 137.47C405.41 138.99 414.07 141.2 422.69 144.02 431.32 146.97 439.92 150.39 448.47 154.19 457.04 157.92 465.58 161.91 474.05 166.08 482.54 170.04 490.98 174.11 499.34 178.25 507.71 182.09 516.01 185.99 524.18 189.93 532.36 193.58 540.41 197.3 548.29 201.12 556.13 204.7 563.77 208.43 571.16 212.33 578.46 216.08 585.46 220.07 592.1 224.31 598.59 228.48 604.66 232.96 610.26 237.76 615.63 242.55 620.48 247.68 624.75 253.16 628.76 258.67 632.16 264.53 634.92 270.72 637.43 276.96 639.32 283.52 640.59 290.39 641.68 297.3 642.21 304.5 642.23 311.96 642.22 319.45 641.81 327.17 641.05 335.11 640.44 343.06 639.63 351.21 638.66 359.53 638.04 367.85 637.38 376.33 636.7 384.94 636.49 393.56 636.3 402.11 636.13 410.58 636.38 419.05 636.57 427.45 636.66 435.77 637.02 444.11 637.17 452.39 637.04 460.6 637 468.85 636.57 477.06 635.69 485.22 634.73 493.45 633.24 501.66 631.19 509.83 628.96 518.09 626.13 526.32 622.71 534.52 619.06 542.8 614.82 551.04 610.03 559.19 605.02 567.38 599.49 575.44 593.5 583.32 587.34 591.16 580.75 598.73 573.81 605.96 566.76 613.01 559.39 619.62 551.76 625.7 544.08 631.45 536.17 636.57 528.09 640.96 519.98 644.92 511.73 648.09 503.36 650.41 495 652.29 486.53 653.33 478 653.55 469.47 653.42 460.88 652.57 452.24 651.07 443.61 649.45 434.94 647.38 426.24 644.94 417.54 642.72 408.82 640.36 400.09 637.96 391.35 636.08 382.81 634.36 374.46 632.83 366.11 631.93 357.95 631.21 350 630.65 342.04 630.62 334.28 630.62 326.72 630.58 319.15 630.85 311.78 630.89 304.63 630.65 297.44 630.45 290.45 629.79 283.69 628.62 276.87 627.29 270.26 625.33 263.85 622.74 257.39 619.87 251.13 616.33 245.07 612.15 238.94 607.65 233.01 602.54 227.29 596.85 221.49 590.9 215.89 584.43 210.5 577.53 205.04 570.43 199.81 562.95 194.81 555.17 189.75 547.27 184.94 539.12 180.42 530.77 175.86 522.38 171.6 513.83 167.67 505.17 163.75 496.51 160.19 487.76 157.03 478.96 153.91 470.17 151.22 461.35 148.98 452.52 146.84 443.7 145.18 434.88 144.03 426.08 143 417.29 142.5 408.51 142.56 399.78 142.74 391.05 143.48 382.56 144.72 374.34 146.07 366.11 147.91 358.13 150.21 350.42 152.57 342.69 155.36 335.23 158.54 328.03 161.74 320.81 165.3 313.85 169.19 307.14 173.04 300.4 177.21 293.89 181.64 287.62 186.02 281.28 190.66 275.14 195.53 269.2 200.32 263.15 205.35 257.26 210.59 251.52 215.74 245.62 221.11 239.83 226.69 234.14 232.19 228.25 237.91 222.44 243.83 216.7 249.69 210.75 255.77 204.88 262.06 199.1 268.3 193.14 274.77 187.32 281.45 181.66 288.1 175.93 294.97 170.43 302.06 165.26 309.13 160.14 316.42 155.43 323.92 151.23 331.4 147.24 339.11 143.85 347.01 141.14 354.9 138.77 363 137.15 371.3 136.33 379.58 135.9 388.07 136.28 396.74 137.47" stroke-dasharray="8 7" transform="rotate(21.11111111111111, 400, 400)" opacity="0.86"></path><path d="M399.01 148.85C407.33 150.31 415.64 152.43 423.92 155.12 432.2 157.95 440.46 161.23 448.67 164.88 456.9 168.5 465.09 172.38 473.21 176.45 481.35 180.35 489.42 184.37 497.41 188.47 505.4 192.33 513.3 196.24 521.06 200.21 528.82 203.91 536.43 207.68 543.84 211.53 551.22 215.16 558.37 218.91 565.25 222.8 572.05 226.54 578.53 230.47 584.65 234.61 590.62 238.67 596.17 242.99 601.27 247.59 606.16 252.15 610.55 257.02 614.4 262.19 618.02 267.36 621.08 272.86 623.55 278.67 625.81 284.5 627.51 290.64 628.64 297.07 629.65 303.52 630.15 310.26 630.19 317.26 630.22 324.27 629.89 331.53 629.25 339.01 628.75 346.51 628.06 354.21 627.22 362.1 626.68 369.99 626.09 378.06 625.47 386.3 625.26 394.53 625.05 402.74 624.83 410.89 624.99 419.05 625.07 427.17 625.06 435.25 625.31 443.34 625.34 451.39 625.13 459.4 625.03 467.44 624.56 475.46 623.7 483.45 622.8 491.49 621.42 499.5 619.54 507.48 617.52 515.52 614.95 523.53 611.85 531.48 608.56 539.48 604.72 547.4 600.37 555.2 595.83 563.01 590.79 570.65 585.31 578.08 579.67 585.42 573.62 592.46 567.2 599.14 560.68 605.63 553.83 611.66 546.72 617.15 539.54 622.33 532.12 626.89 524.51 630.75 516.87 634.23 509.06 636.97 501.13 638.94 493.19 640.51 485.13 641.32 476.99 641.39 468.86 641.17 460.64 640.31 452.38 638.86 444.12 637.34 435.81 635.39 427.47 633.12 419.14 631.05 410.77 628.85 402.39 626.59 394.01 624.8 385.8 623.12 377.79 621.61 369.77 620.65 361.94 619.84 354.3 619.17 346.65 618.97 339.18 618.81 331.91 618.62 324.62 618.72 317.52 618.65 310.62 618.33 303.69 618.1 296.95 617.47 290.4 616.4 283.81 615.23 277.4 613.51 271.19 611.23 264.93 608.73 258.85 605.63 252.96 601.93 247.01 597.98 241.24 593.44 235.67 588.36 230.03 583.05 224.58 577.23 219.35 570.98 214.05 564.53 208.96 557.7 204.11 550.55 199.2 543.27 194.55 535.72 190.17 527.95 185.76 520.11 181.65 512.09 177.86 503.95 174.09 495.77 170.67 487.49 167.62 479.15 164.63 470.8 162.05 462.4 159.91 453.98 157.86 445.56 156.27 437.13 155.18 428.72 154.2 420.3 153.73 411.9 153.79 403.54 153.97 395.18 154.68 387.05 155.89 379.16 157.19 371.27 158.96 363.61 161.17 356.2 163.45 348.78 166.14 341.59 169.21 334.64 172.29 327.67 175.73 320.93 179.49 314.41 183.23 307.85 187.27 301.49 191.57 295.34 195.82 289.12 200.33 283.06 205.06 277.18 209.72 271.18 214.61 265.32 219.71 259.58 224.72 253.69 229.95 247.9 235.37 242.2 240.72 236.33 246.27 230.53 252.01 224.81 257.69 218.91 263.58 213.11 269.66 207.41 275.69 201.58 281.93 195.9 288.37 190.41 294.77 184.88 301.39 179.61 308.2 174.67 314.99 169.81 321.99 165.37 329.18 161.42 336.36 157.68 343.75 154.53 351.32 152.02 358.89 149.84 366.65 148.37 374.61 147.65 382.55 147.29 390.69 147.69 399 148.85" stroke-dasharray="6 6" transform="rotate(24.62962962962963, 400, 400)" opacity="0.91"></path><path d="M401.33 160.22C409.29 161.63 417.25 163.65 425.17 166.21 433.09 168.91 441 172.05 448.85 175.56 456.71 179.04 464.53 182.8 472.28 186.76 480.03 190.58 487.71 194.53 495.29 198.59 502.88 202.43 510.35 206.35 517.67 210.32 524.98 214.06 532.12 217.86 539.06 221.74 545.95 225.41 552.6 229.18 558.98 233.08 565.26 236.81 571.23 240.71 576.83 244.79 582.3 248.77 587.37 252.97 591.98 257.41 596.43 261.79 600.39 266.44 603.85 271.36 607.12 276.27 609.87 281.46 612.08 286.93 614.13 292.41 615.67 298.17 616.7 304.21 617.63 310.26 618.12 316.58 618.18 323.16 618.27 329.74 618.02 336.57 617.48 343.63 617.09 350.69 616.52 357.97 615.78 365.45 615.34 372.93 614.82 380.61 614.24 388.47 614.03 396.32 613.8 404.18 613.54 412.01 613.62 419.85 613.61 427.68 613.51 435.48 613.63 443.29 613.57 451.09 613.28 458.86 613.1 466.66 612.6 474.44 611.75 482.19 610.88 489.98 609.59 497.74 607.85 505.46 606 513.21 603.67 520.92 600.85 528.55 597.88 536.19 594.4 543.73 590.46 551.13 586.34 558.49 581.77 565.66 576.77 572.57 571.62 579.39 566.08 585.88 560.18 591.99 554.18 597.9 547.85 603.35 541.25 608.27 534.58 612.89 527.66 616.92 520.54 620.3 513.38 623.33 506.05 625.68 498.56 627.32 491.07 628.62 483.44 629.24 475.72 629.19 468 628.91 460.19 628.05 452.32 626.66 444.45 625.23 436.52 623.42 428.56 621.31 420.59 619.39 412.59 617.34 404.57 615.21 396.55 613.51 388.69 611.89 381.01 610.39 373.33 609.39 365.81 608.5 358.48 607.72 351.13 607.39 343.96 607.07 336.97 606.73 329.96 606.69 323.12 606.49 316.47 606.08 309.78 605.79 303.27 605.16 296.94 604.15 290.57 603.1 284.37 601.56 278.35 599.54 272.29 597.35 266.39 594.62 260.67 591.36 254.9 587.89 249.3 583.88 243.89 579.36 238.42 574.64 233.14 569.43 228.06 563.8 222.93 558 218 551.8 213.3 545.28 208.57 538.63 204.07 531.69 199.84 524.51 195.6 517.26 191.65 509.8 188.01 502.2 184.39 494.55 181.11 486.78 178.19 478.92 175.34 471.05 172.87 463.1 170.83 455.12 168.88 447.14 167.37 439.12 166.33 431.11 165.4 423.09 164.96 415.08 165.02 407.09 165.2 399.1 165.89 391.32 167.04 383.76 168.29 376.2 169.99 368.85 172.12 361.72 174.3 354.58 176.89 347.64 179.84 340.93 182.81 334.18 186.12 327.63 189.75 321.28 193.36 314.88 197.26 308.66 201.42 302.61 205.53 296.48 209.9 290.51 214.49 284.67 219.02 278.73 223.76 272.9 228.71 267.18 233.58 261.32 238.66 255.55 243.92 249.87 249.11 244.04 254.5 238.29 260.06 232.63 265.57 226.82 271.27 221.12 277.15 215.55 282.97 209.88 289 204.38 295.21 199.09 301.38 193.79 307.74 188.77 314.29 184.08 320.82 179.49 327.53 175.32 334.44 171.63 341.32 168.15 348.4 165.23 355.66 162.93 362.91 160.93 370.35 159.6 377.96 158.98 385.57 158.68 393.36 159.09 401.32 160.22" stroke-dasharray="8 6" transform="rotate(28.148148148148145, 400, 400)" opacity="0.49"></path><path d="M403.58 171.6C411.19 172.94 418.77 174.87 426.33 177.31 433.89 179.88 441.41 182.87 448.89 186.22 456.36 189.56 463.79 193.18 471.14 197.01 478.48 200.73 485.75 204.61 492.9 208.6 500.05 212.4 507.07 216.29 513.94 220.26 520.78 224.01 527.44 227.83 533.89 231.73 540.28 235.43 546.44 239.22 552.31 243.12 558.09 246.86 563.55 250.74 568.67 254.78 573.65 258.7 578.25 262.82 582.43 267.14 588.24 273.62 597.32 287.73 600.55 295.39 603.11 303.29 605.87 320.37 606.22 329.54 606.35 335.73 606.18 342.17 605.75 348.83 605.46 355.49 604.99 362.37 604.37 369.46 604 376.54 603.54 383.84 603.01 391.32 602.81 398.8 602.56 406.31 602.26 413.81 602.27 421.31 602.18 428.82 601.99 436.32 602.01 443.83 601.86 451.33 601.49 458.82 601.24 466.32 600.7 473.82 599.84 481.27 599 488.76 597.77 496.2 596.14 503.6 594.45 511 592.31 518.34 589.74 525.58 587.04 532.81 583.9 539.91 580.31 546.84 576.59 553.71 572.44 560.36 567.89 566.74 563.21 573 558.16 578.93 552.75 584.47 547.25 589.8 541.43 594.68 535.34 599.05 529.18 603.15 522.76 606.68 516.14 609.61 509.47 612.23 502.61 614.23 495.59 615.58 488.56 616.65 481.39 617.11 474.1 616.96 466.81 616.63 459.43 615.79 451.96 614.48 444.5 613.14 436.97 611.47 429.39 609.51 421.81 607.74 414.19 605.83 406.53 603.84 398.88 602.22 391.37 600.66 384.03 599.18 376.68 598.15 369.48 597.2 362.45 596.33 355.41 595.87 348.53 595.41 341.81 594.93 335.08 594.74 328.5 594.41 322.09 593.91 315.65 593.54 309.37 592.89 303.26 591.91 297.11 590.93 291.12 589.54 285.3 587.71 279.43 585.78 273.73 583.37 268.19 580.48 262.61 577.42 257.19 573.88 251.95 569.87 246.66 565.68 241.55 561.05 236.63 556 231.68 550.8 226.92 545.22 222.39 539.31 217.84 533.28 213.51 526.95 209.45 520.37 205.38 513.71 201.6 506.84 198.11 499.79 194.65 492.69 191.52 485.45 188.74 478.1 186.02 470.73 183.68 463.27 181.74 455.74 179.89 448.22 178.46 440.64 177.48 433.04 176.6 425.44 176.19 417.83 176.25 410.22 176.43 402.61 177.09 395.18 178.19 387.94 179.39 380.7 181.01 373.65 183.04 366.79 185.14 359.92 187.61 353.23 190.43 346.72 193.29 340.18 196.47 333.81 199.94 327.62 203.42 321.37 207.17 315.27 211.18 309.32 215.16 303.3 219.38 297.4 223.81 291.62 228.19 285.75 232.79 279.97 237.57 274.29 242.3 268.5 247.22 262.79 252.32 257.16 257.35 251.41 262.57 245.74 267.95 240.18 273.28 234.51 278.79 228.95 284.47 223.54 290.11 218.07 295.92 212.78 301.9 207.72 307.84 202.68 313.97 197.92 320.26 193.5 326.53 189.19 332.98 185.3 339.6 181.87 346.2 178.65 352.98 175.97 359.93 173.87 366.86 172.05 373.98 170.85 381.25 170.32 388.53 170.08 395.97 170.51 403.57 171.6" stroke-dasharray="3 6" transform="rotate(31.666666666666664, 400, 400)" opacity="0.92"></path><path d="M405.66 182.97C412.9 184.26 420.11 186.08 427.28 188.39 434.46 190.83 441.6 193.67 448.67 196.86 455.75 200.06 462.77 203.53 469.69 207.22 476.62 210.83 483.45 214.6 490.16 218.5 496.85 222.24 503.41 226.09 509.8 230.02 516.17 233.76 522.34 237.58 528.3 241.48 534.2 245.19 539.86 249 545.23 252.9 550.52 256.65 555.51 260.52 560.15 264.52 566.76 270.43 577.86 283 582.27 289.71 586.05 296.58 591.31 311.4 592.83 319.38 593.67 324.76 594.15 330.38 594.3 336.23 594.48 342.08 594.39 348.15 594.06 354.44 593.86 360.73 593.49 367.24 592.96 373.95 592.66 380.66 592.26 387.58 591.78 394.69 591.58 401.8 591.32 408.95 591 416.1 590.94 423.25 590.78 430.42 590.51 437.59 590.44 444.76 590.2 451.94 589.76 459.09 589.44 466.26 588.86 473.41 587.99 480.52 587.15 487.64 585.97 494.72 584.44 501.73 582.87 508.73 580.9 515.65 578.54 522.44 576.09 529.2 573.23 535.82 569.98 542.24 566.61 548.58 562.84 554.7 558.71 560.52 554.46 566.21 549.86 571.57 544.93 576.54 539.91 581.32 534.58 585.65 528.98 589.5 523.31 593.1 517.39 596.18 511.26 598.69 505.08 600.94 498.7 602.63 492.16 603.73 485.6 604.6 478.89 604.92 472.06 604.71 465.21 604.35 458.26 603.54 451.22 602.3 444.18 601.07 437.05 599.53 429.87 597.72 422.69 596.1 415.45 594.33 408.18 592.46 400.9 590.94 393.75 589.43 386.75 587.98 379.74 586.93 372.86 585.93 366.14 584.99 359.41 584.41 352.82 583.83 346.37 583.22 339.92 582.88 333.6 582.43 327.44 581.83 321.25 581.38 315.21 580.68 309.32 579.71 303.4 578.77 297.63 577.47 292.01 575.8 286.35 574.07 280.84 571.91 275.5 569.34 270.11 566.64 264.88 563.5 259.82 559.94 254.73 556.24 249.8 552.12 245.07 547.61 240.31 542.97 235.74 537.97 231.39 532.64 227.02 527.2 222.88 521.47 218.99 515.47 215.11 509.4 211.49 503.1 208.17 496.62 204.89 490.08 201.91 483.38 199.27 476.55 196.69 469.7 194.48 462.73 192.64 455.69 190.89 448.63 189.54 441.51 188.62 434.34 187.8 427.17 187.41 419.96 187.48 412.73 187.66 405.51 188.29 398.43 189.34 391.52 190.48 384.61 192.03 377.85 193.96 371.25 195.95 364.65 198.31 358.19 201 351.89 203.73 345.56 206.77 339.37 210.1 333.33 213.43 327.24 217.03 321.27 220.88 315.43 224.7 309.52 228.76 303.72 233.03 298.02 237.26 292.23 241.69 286.54 246.31 280.93 250.87 275.23 255.63 269.61 260.55 264.08 265.42 258.45 270.46 252.91 275.66 247.49 280.81 241.99 286.13 236.62 291.61 231.41 297.04 226.17 302.64 221.12 308.4 216.32 314.12 211.55 320 207.07 326.05 202.94 332.06 198.93 338.25 195.31 344.58 192.15 350.91 189.19 357.39 186.73 364.03 184.83 370.66 183.18 377.45 182.11 384.39 181.66 391.32 181.48 398.41 181.92 405.65 182.97" stroke-dasharray="1 7" transform="rotate(35.18518518518518, 400, 400)" opacity="0.15"></path><path d="M407.46 194.35C414.32 195.57 421.15 197.3 427.94 199.48 434.72 201.78 441.45 204.47 448.12 207.49 454.78 210.53 461.37 213.85 467.86 217.38 474.35 220.86 480.73 224.5 486.98 228.29 493.22 231.96 499.31 235.73 505.22 239.6 511.11 243.31 516.8 247.11 522.27 250.98 527.69 254.69 532.86 258.49 537.76 262.38 544.85 268.06 557.29 279.81 562.57 285.95 567.3 292.13 574.7 305.29 577.35 312.31 579.51 319.49 581.99 334.87 582.42 343.07 582.66 348.6 582.64 354.35 582.4 360.3 582.29 366.24 582 372.39 581.57 378.74 581.33 385.09 580.99 391.64 580.55 398.38 580.36 405.12 580.09 411.89 579.74 418.68 579.63 425.47 579.4 432.27 579.07 439.08 578.91 445.89 578.59 452.69 578.09 459.48 577.7 466.27 577.08 473.03 576.2 479.75 575.36 486.46 574.22 493.12 572.77 499.69 571.29 506.24 569.46 512.68 567.29 518.99 565.05 525.25 562.44 531.35 559.47 537.23 556.42 543.03 553.01 548.59 549.25 553.85 545.4 558.98 541.22 563.78 536.73 568.2 532.16 572.43 527.3 576.25 522.17 579.61 516.98 582.75 511.55 585.41 505.89 587.56 500.2 589.48 494.31 590.89 488.24 591.78 482.15 592.48 475.9 592.7 469.52 592.44 463.13 592.07 456.62 591.3 450.01 590.15 443.4 589.02 436.7 587.61 429.93 585.95 423.15 584.46 416.31 582.83 409.42 581.09 402.53 579.65 395.75 578.21 389.09 576.8 382.43 575.73 375.89 574.69 369.47 573.69 363.06 573.01 356.76 572.32 350.6 571.6 344.43 571.13 338.38 570.56 332.47 569.86 323.65 568.93 306.63 566.02 298.45 563.85 290.37 561.29 274.89 554.19 267.52 549.63 262.63 546.35 257.91 542.68 253.37 538.67 248.81 534.54 244.44 530.06 240.28 525.28 236.12 520.4 232.17 515.23 228.47 509.8 224.78 504.3 221.35 498.56 218.2 492.63 215.09 486.65 212.28 480.49 209.79 474.18 207.35 467.85 205.26 461.39 203.54 454.83 201.9 448.25 200.63 441.59 199.77 434.86 199 428.12 198.64 421.33 198.71 414.49 198.89 407.66 199.48 400.94 200.48 394.36 201.56 387.77 203.03 381.31 204.86 374.98 206.75 368.64 208.99 362.42 211.54 356.33 214.13 350.22 217.03 344.22 220.2 338.34 223.37 332.42 226.81 326.6 230.49 320.88 234.15 315.11 238.04 309.43 242.13 303.84 246.19 298.18 250.45 292.6 254.89 287.11 259.29 281.54 263.86 276.05 268.6 270.66 273.29 265.19 278.15 259.83 283.16 254.59 288.12 249.3 293.24 244.16 298.51 239.18 303.74 234.21 309.12 229.43 314.65 224.91 320.15 220.44 325.79 216.26 331.58 212.42 337.35 208.7 343.26 205.37 349.32 202.47 355.36 199.76 361.55 197.53 367.88 195.81 374.2 194.33 380.66 193.39 387.26 193.02 393.86 192.89 400.59 193.33 407.45 194.35" stroke-dasharray="0 3" transform="rotate(38.7037037037037, 400, 400)" opacity="0.50"></path><path d="M408.9 205.72C415.38 206.88 421.82 208.51 428.2 210.56 434.57 212.72 440.9 215.26 447.14 218.1 453.38 220.98 459.53 224.13 465.58 227.5 471.62 230.83 477.55 234.33 483.34 237.99 489.11 241.55 494.73 245.23 500.17 249.01 505.58 252.66 510.8 256.41 515.8 260.23 523.1 265.81 536.33 277.2 542.17 283.04 547.57 288.84 556.6 300.95 560.19 307.31 563.3 313.74 567.72 327.4 569.08 334.66 570.12 342.07 570.91 357.83 570.78 366.18 570.75 371.8 570.54 377.62 570.19 383.62 570.01 389.61 569.72 395.8 569.32 402.16 569.14 408.52 568.86 414.92 568.49 421.33 568.33 427.74 568.06 434.16 567.67 440.57 567.44 446.99 567.05 453.39 566.49 459.77 566.04 466.14 565.38 472.48 564.48 478.76 563.64 485.03 562.52 491.22 561.13 497.31 559.73 503.38 558.02 509.32 556.01 515.11 553.95 520.85 551.56 526.41 548.85 531.74 544.52 539.49 534.18 553.41 528.2 559.43 521.83 564.83 507.72 573.27 500.05 576.22 492.12 578.45 475.29 580.38 466.48 580.16 460.54 579.79 454.48 579.07 448.31 578.01 442.13 576.99 435.86 575.7 429.5 574.19 423.14 572.83 416.7 571.33 410.21 569.71 403.71 568.36 397.3 566.99 391 565.62 384.69 564.55 378.49 563.49 372.4 562.44 366.31 561.67 360.32 560.89 354.45 560.07 345.69 559.14 328.73 556.95 320.55 555.52 312.46 553.97 296.89 549.52 289.44 546.51 282.09 543.1 268.12 534.45 261.54 529.23 257.2 525.56 253.04 521.56 249.09 517.27 245.14 512.91 241.4 508.26 237.9 503.36 234.41 498.4 231.17 493.2 228.2 487.8 225.27 482.36 222.62 476.73 220.29 470.93 218.01 465.12 216.05 459.16 214.44 453.08 212.9 446.98 211.72 440.78 210.92 434.49 210.2 428.2 209.87 421.83 209.94 415.39 210.11 408.95 210.67 402.6 211.62 396.35 212.64 390.1 214.02 383.94 215.75 377.89 217.53 371.83 219.64 365.86 222.06 360 224.51 354.11 227.25 348.32 230.25 342.62 233.26 336.89 236.53 331.24 240.03 325.68 243.51 320.08 247.22 314.55 251.12 309.11 255.01 303.61 259.08 298.19 263.32 292.85 267.54 287.46 271.92 282.15 276.46 276.94 280.97 271.69 285.63 266.54 290.43 261.53 295.2 256.49 300.11 251.61 305.16 246.9 310.18 242.21 315.34 237.74 320.63 233.51 325.89 229.35 331.29 225.48 336.82 221.94 342.33 218.52 347.98 215.47 353.75 212.83 359.5 210.37 365.39 208.36 371.41 206.83 377.41 205.5 383.54 204.68 389.79 204.39 396.04 204.31 402.41 204.75 408.89 205.72" stroke-dasharray="0 8" transform="rotate(42.22222222222222, 400, 400)" opacity="0.23"></path><path d="M409.9 217.1C422.08 219.44 434.05 223.42 445.67 228.71 457.28 234.14 468.51 240.53 479.19 247.6 489.79 254.37 499.76 261.63 508.89 269.23 517.84 276.39 525.86 283.9 532.76 291.75 539.39 299.22 544.85 307.16 549.02 315.56 552.97 323.75 555.71 332.54 557.26 341.94 558.83 351.24 559.45 361.24 559.2 371.89 559.38 382.52 559 393.84 558.09 405.81 557.93 417.78 557.33 429.85 556.3 441.85 555.85 453.84 554.72 465.75 552.84 477.38 551.16 488.94 548.47 500.13 544.73 510.71 540.88 521.05 535.84 530.58 529.68 539.04 523.3 547.03 515.8 553.72 507.32 558.89 498.67 563.43 489.13 566.38 478.86 567.64 468.51 568.46 457.52 567.84 446.07 565.9 434.59 564.11 422.68 561.53 410.49 558.34 398.3 556.06 386.4 553.65 374.89 551.23 363.36 549.81 352.2 548.2 341.49 546.27 330.72 544.92 320.37 542.87 310.54 539.98 300.63 537.18 291.21 533.24 282.39 528.14 273.53 522.85 265.29 516.33 257.82 508.69 250.38 500.82 243.77 491.92 238.18 482.16 232.73 472.25 228.39 461.61 225.33 450.41 222.54 439.17 221.11 427.44 221.18 415.37 221.57 403.3 223.45 391.46 226.62 379.94 230.02 368.4 234.63 357.12 240.26 346.18 245.96 335.13 252.6 324.34 260.02 313.87 267.38 303.25 275.46 292.91 284.14 282.99 292.71 272.96 301.88 263.43 311.54 254.59 321.1 245.88 331.19 238.09 341.72 231.51 352.2 225.4 363.16 220.77 374.55 217.87 385.91 215.72 397.72 215.42 409.89 217.1" stroke-dasharray="2 7" transform="rotate(45.74074074074074, 400, 400)" opacity="0.12"></path><path d="M410.42 228.47C421.8 230.66 432.93 234.37 443.69 239.3 454.44 244.4 464.78 250.42 474.55 257.12 484.25 263.61 493.32 270.62 501.59 277.99 509.69 285 516.92 292.37 523.12 300.05 529.11 307.4 534.04 315.17 537.82 323.34 541.45 331.3 544.01 339.79 545.5 348.78 547.06 357.68 547.76 367.17 547.65 377.24 547.94 387.27 547.67 397.92 546.86 409.12 546.69 420.32 546.05 431.57 544.97 442.7 544.4 453.83 543.18 464.81 541.28 475.47 539.59 486.04 537 496.19 533.48 505.7 529.91 514.97 525.29 523.44 519.66 530.87 513.88 537.88 507.08 543.69 499.38 548.09 491.53 552 482.84 554.48 473.45 555.48 463.98 556.16 453.89 555.56 443.3 553.8 432.69 552.22 421.64 549.89 410.27 546.97 398.9 544.82 387.75 542.49 376.92 540.07 366.09 538.52 355.56 536.74 345.44 534.67 335.28 533.15 325.49 531.02 316.18 528.17 306.81 525.47 297.91 521.8 289.59 517.14 281.24 512.37 273.49 506.51 266.48 499.64 259.51 492.6 253.35 484.6 248.14 475.77 243.08 466.82 239.05 457.13 236.22 446.85 233.64 436.53 232.33 425.69 232.41 414.43 232.78 403.17 234.53 392.05 237.49 381.15 240.66 370.24 244.96 359.51 250.23 349.05 255.59 338.52 261.83 328.2 268.81 318.18 275.77 308.07 283.42 298.24 291.63 288.85 299.77 279.42 308.47 270.5 317.64 262.29 326.72 254.26 336.29 247.13 346.26 241.15 356.18 235.63 366.54 231.49 377.26 228.94 387.95 227.06 399.04 226.86 410.41 228.47" stroke-dasharray="7 4" transform="rotate(49.25925925925926, 400, 400)" opacity="0.46"></path><path d="M410.44 239.85C421 241.89 431.29 245.32 441.19 249.89 451.07 254.63 460.52 260.26 469.42 266.57 478.25 272.74 486.46 279.44 493.91 286.51 501.23 293.31 507.74 300.47 513.31 307.93 518.71 315.12 523.17 322.68 526.61 330.59 529.95 338.3 532.35 346.47 533.81 355.06 535.35 363.55 536.12 372.56 536.15 382.04 536.52 391.48 536.35 401.45 535.63 411.88 535.45 422.31 534.79 432.72 533.68 442.96 533.01 453.19 531.73 463.22 529.82 472.89 528.12 482.46 525.61 491.58 522.28 500.03 518.96 508.28 514.7 515.73 509.55 522.19 504.3 528.3 498.14 533.3 491.15 537.05 484.05 540.4 476.16 542.49 467.61 543.28 458.99 543.85 449.76 543.31 440.04 541.73 430.29 540.35 420.09 538.26 409.55 535.59 399 533.59 388.62 531.34 378.51 528.95 368.4 527.3 358.54 525.4 349.04 523.21 339.51 521.53 330.32 519.32 321.57 516.49 312.79 513.86 304.45 510.39 296.65 506.07 288.84 501.72 281.61 496.42 275.08 490.22 268.61 483.91 262.9 476.71 258.08 468.73 253.41 460.66 249.71 451.87 247.11 442.48 244.75 433.05 243.55 423.07 243.64 412.63 243.99 402.2 245.61 391.81 248.35 381.58 251.29 371.33 255.28 361.21 260.18 351.31 265.16 341.36 270.99 331.6 277.52 322.13 284.04 312.61 291.23 303.38 298.95 294.59 306.62 285.82 314.83 277.57 323.45 270.04 332.03 262.7 341.05 256.24 350.42 250.87 359.77 245.93 369.49 242.26 379.52 240.05 389.53 238.41 399.87 238.31 410.44 239.85" stroke-dasharray="0 9" transform="rotate(52.77777777777778, 400, 400)" opacity="0.49"></path><path d="M409.94 251.22C419.68 253.11 429.13 256.27 438.17 260.48 447.2 264.85 455.79 270.07 463.84 275.96 471.83 281.76 479.23 288.09 485.92 294.82 492.51 301.34 498.35 308.23 503.35 315.4 508.23 322.36 512.27 329.66 515.41 337.25 518.5 344.69 520.76 352.51 522.18 360.68 523.71 368.76 524.53 377.26 524.68 386.15 525.12 395.01 525.03 404.29 524.4 413.93 524.22 423.58 523.55 433.13 522.42 442.48 521.67 451.8 520.35 460.88 518.44 469.55 516.74 478.14 514.32 486.24 511.17 493.69 508.06 500.95 504.13 507.45 499.41 513.03 494.64 518.32 489.05 522.61 482.71 525.78 476.3 528.65 469.17 530.42 461.41 531.06 453.6 531.56 445.2 531.08 436.32 529.69 427.42 528.49 418.06 526.64 408.36 524.22 398.65 522.36 389.06 520.21 379.69 517.87 370.32 516.16 361.16 514.17 352.31 511.9 343.45 510.09 334.9 507.8 326.75 504.99 318.59 502.38 310.83 499.07 303.59 495.04 296.36 491.02 289.67 486.18 283.65 480.56 277.69 474.87 272.44 468.39 268.02 461.18 263.75 453.91 260.37 445.96 258.01 437.41 255.86 428.83 254.77 419.69 254.87 410.08 255.2 400.47 256.69 390.85 259.21 381.32 261.9 371.79 265.58 362.34 270.09 353.07 274.7 343.78 280.09 334.65 286.14 325.81 292.21 316.95 298.9 308.39 306.1 300.28 313.27 292.23 320.94 284.69 329 277.86 337.03 271.24 345.46 265.45 354.21 260.68 362.94 256.3 372.01 253.08 381.32 251.19 390.63 249.79 400.2 249.77 409.94 251.22" stroke-dasharray="6 6" transform="rotate(56.29629629629629, 400, 400)" opacity="0.79"></path><path d="M408.96 262.6C417.87 264.34 426.47 267.22 434.67 271.05 442.86 275.05 450.62 279.85 457.86 285.28 465.06 290.68 471.69 296.61 477.68 302.93 483.59 309.1 488.82 315.64 493.31 322.46 497.71 329.12 501.38 336.09 504.25 343.33 507.11 350.43 509.25 357.86 510.64 365.57 512.14 373.21 513 381.19 513.24 389.47 513.74 397.72 513.72 406.31 513.17 415.16 512.99 424.01 512.32 432.71 511.2 441.15 510.39 449.57 509.05 457.7 507.17 465.41 505.47 473.03 503.14 480.17 500.16 486.67 497.24 493.01 493.61 498.64 489.29 503.42 484.94 507.98 479.87 511.65 474.14 514.32 468.36 516.79 461.93 518.3 454.92 518.83 447.87 519.28 440.27 518.88 432.22 517.68 424.14 516.65 415.63 515.02 406.76 512.84 397.89 511.13 389.1 509.1 380.49 506.83 371.89 505.09 363.46 503.06 355.3 500.74 347.15 498.83 339.26 496.49 331.74 493.69 324.23 491.1 317.1 487.92 310.44 484.11 303.82 480.37 297.69 475.92 292.18 470.79 286.75 465.64 281.97 459.79 277.97 453.27 274.09 446.73 271.04 439.55 268.91 431.8 266.97 424.03 266 415.72 266.1 406.93 266.4 398.14 267.76 389.31 270.06 380.53 272.51 371.75 275.86 363.02 279.99 354.46 284.2 345.89 289.15 337.47 294.71 329.33 300.3 321.2 306.47 313.38 313.11 306 319.75 298.7 326.84 291.91 334.3 285.8 341.75 279.89 349.56 274.77 357.65 270.59 365.73 266.75 374.11 263.96 382.68 262.36 391.26 261.18 400.05 261.23 408.96 262.6" stroke-dasharray="7 3" transform="rotate(59.81481481481482, 400, 400)" opacity="0.83"></path><path d="M407.54 273.97C415.62 275.56 423.38 278.16 430.76 281.63 438.13 285.25 445.09 289.61 451.56 294.57 457.99 299.53 463.91 305 469.25 310.85 474.53 316.62 479.21 322.75 483.23 329.15 487.2 335.43 490.53 342.01 493.16 348.82 495.81 355.53 497.82 362.51 499.17 369.72 500.63 376.88 501.53 384.3 501.84 391.94 502.37 399.56 502.41 407.43 501.94 415.48 501.76 423.53 501.11 431.38 500.01 438.93 499.17 446.46 497.83 453.67 495.99 460.45 494.32 467.16 492.08 473.38 489.28 479 484.86 486.92 472.97 498.9 465.51 502.72 460.31 504.85 454.53 506.15 448.23 506.61 441.91 507.03 435.08 506.72 427.82 505.69 420.55 504.83 412.86 503.41 404.84 501.47 396.81 499.91 388.83 498 381 495.84 373.18 494.1 365.5 492.06 358.06 489.74 350.64 487.76 343.45 485.39 336.6 482.62 329.77 480.06 323.28 476.98 317.24 473.38 311.23 469.87 305.69 465.76 300.71 461.06 295.81 456.38 291.51 451.07 287.92 445.19 284.45 439.3 281.71 432.83 279.82 425.84 278.09 418.84 277.23 411.33 277.33 403.37 277.61 395.4 278.83 387.37 280.91 379.38 283.12 371.39 286.14 363.44 289.87 355.63 293.69 347.83 298.17 340.19 303.22 332.81 308.31 325.47 313.93 318.43 320 311.81 326.07 305.3 332.56 299.27 339.39 293.89 346.22 288.69 353.37 284.21 360.78 280.6 368.18 277.27 375.83 274.89 383.65 273.57 391.48 272.59 399.47 272.7 407.54 273.97" stroke-dasharray="7 0" transform="rotate(63.33333333333333, 400, 400)" opacity="0.61"></path><path d="M405.76 285.35C413 286.78 419.94 289.11 426.51 292.2 433.08 295.44 439.26 299.35 445 303.82 450.72 308.31 455.97 313.28 460.7 318.63 465.4 323.93 469.57 329.58 473.16 335.5 476.73 341.33 479.74 347.44 482.16 353.75 484.6 359.99 486.48 366.47 487.8 373.12 489.2 379.74 490.1 386.56 490.48 393.54 491.03 400.5 491.11 407.64 490.71 414.88 490.54 422.12 489.91 429.12 488.85 435.8 488 442.47 486.69 448.8 484.92 454.7 482.23 463.24 474.43 477.55 469.27 483.08 463.6 487.76 449.65 493.43 441.44 494.4 435.8 494.82 429.71 494.59 423.23 493.74 416.73 493.03 409.86 491.81 402.67 490.09 395.48 488.68 388.33 486.92 381.29 484.88 374.26 483.18 367.36 481.17 360.67 478.89 353.99 476.89 347.53 474.53 341.38 471.82 335.24 469.29 329.42 466.33 324.01 462.93 318.64 459.62 313.69 455.8 309.25 451.5 304.89 447.22 301.07 442.42 297.89 437.12 294.81 431.82 292.4 426.02 290.74 419.75 289.21 413.48 288.46 406.75 288.56 399.6 288.81 392.46 289.9 385.25 291.75 378.07 293.72 370.9 296.42 363.76 299.75 356.76 303.16 349.78 307.17 342.95 311.7 336.38 316.27 329.86 321.33 323.62 326.79 317.8 332.27 312.08 338.14 306.82 344.3 302.15 350.48 297.65 356.95 293.8 363.64 290.72 370.33 287.89 377.24 285.89 384.28 284.81 391.33 284.02 398.52 284.17 405.76 285.35" stroke-dasharray="4 5" transform="rotate(66.85185185185185, 400, 400)" opacity="0.98"></path><path d="M403.69 296.72C410.1 297.99 416.23 300.05 422.02 302.78 427.81 305.63 433.25 309.09 438.29 313.05 443.32 317.05 447.95 321.49 452.11 326.3 456.26 331.08 459.96 336.19 463.15 341.55 466.35 346.87 469.06 352.44 471.26 358.18 473.5 363.89 475.25 369.8 476.51 375.84 477.85 381.86 478.74 388.03 479.15 394.31 479.7 400.58 479.82 406.96 479.48 413.39 479.32 419.81 478.72 425.98 477.72 431.82 476.26 440.4 471.39 455.58 467.95 461.99 464.16 467.79 454.36 476.47 448.36 479.25 441.92 481.35 426.97 482.58 418.55 481.81 412.81 481.25 406.74 480.22 400.38 478.72 394.02 477.46 387.69 475.85 381.46 473.96 375.24 472.33 369.12 470.4 363.2 468.19 357.28 466.21 351.56 463.91 346.12 461.3 338.13 457.42 323.89 447.93 317.83 442.22 312.33 436.15 304.15 421.89 301.66 413.73 300.33 408.16 299.69 402.19 299.79 395.86 300.01 389.53 300.98 383.15 302.6 376.8 304.33 370.46 306.7 364.17 309.63 358.01 312.63 351.87 316.17 345.88 320.16 340.15 324.21 334.46 328.69 329.05 333.53 324.03 338.39 319.1 343.61 314.59 349.09 310.62 354.59 306.79 360.35 303.54 366.3 300.97 372.25 298.59 378.4 296.94 384.66 296.09 390.92 295.46 397.29 295.65 403.69 296.72" stroke-dasharray="8 7" transform="rotate(70.37037037037037, 400, 400)" opacity="0.25"></path><path d="M401.45 308.1C412.6 310.47 422.75 315.44 431.52 322.27 440.26 329.27 447.6 337.86 453.25 347.38 458.92 356.83 463.01 367.18 465.32 377.95 467.9 388.66 468.95 399.87 468.24 411.1 468.1 422.32 466.29 432.47 463.08 441.14 460.24 449.72 455.76 456.7 449.86 461.68 444.05 466.52 436.65 469.39 427.94 470.12 419.21 471 409.13 470.08 398.07 467.34 387 465.33 376.04 461.98 365.72 457.65 355.46 454.01 345.91 449.11 337.62 443.07 329.49 437.35 322.73 430.17 317.92 421.69 313.39 413.27 310.92 403.4 311.02 392.36 311.51 381.33 314.51 370.18 319.51 359.55 324.75 349 331.85 339.11 340.24 330.56 348.74 322.32 358.45 315.69 368.83 311.34 379.24 307.6 390.3 306.35 401.45 308.1" stroke-dasharray="3 1" transform="rotate(73.88888888888889, 400, 400)" opacity="0.76"></path><path d="M399.13 319.47C408.64 321.49 417.29 325.7 424.78 331.5 432.26 337.47 438.58 344.83 443.49 353.04 448.45 361.23 452.09 370.23 454.22 379.56 456.57 388.87 457.57 398.55 457.01 408.15 456.86 417.74 455.2 426.33 452.31 433.59 449.69 440.8 445.67 446.62 440.47 450.78 435.35 454.88 428.92 457.36 421.41 458.07 413.91 458.93 405.29 458.25 395.85 455.97 386.41 454.21 377.08 451.2 368.32 447.26 359.61 443.82 351.52 439.27 344.54 433.77 337.68 428.53 332.01 422.11 327.99 414.67 324.19 407.29 322.14 398.76 322.25 389.32 322.66 379.89 325.19 370.45 329.42 361.53 333.83 352.67 339.84 344.46 346.97 337.44 354.19 330.67 362.46 325.29 371.31 321.84 380.19 318.84 389.62 317.92 399.13 319.47" stroke-dasharray="8 6" transform="rotate(77.4074074074074, 400, 400)" opacity="0.39"></path><path d="M396.86 330.84C404.74 332.52 411.93 335.98 418.18 340.75 424.42 345.66 429.74 351.77 433.92 358.6 438.15 365.46 441.31 373.01 443.22 380.82 445.29 388.64 446.21 396.74 445.78 404.71 445.63 412.68 444.17 419.76 441.64 425.72 437.55 434.04 424.19 444.35 415.15 446.09 408.85 446.91 401.66 446.45 393.84 444.59 386.01 443.1 378.3 440.48 371.09 437.01 363.91 433.89 357.28 429.8 351.58 424.94 345.97 420.27 341.35 414.66 338.1 408.28 335.02 401.96 333.36 394.76 333.48 386.92 333.81 379.07 335.88 371.32 339.34 364.07 342.95 356.88 347.88 350.28 353.74 344.72 359.68 339.33 366.5 335.12 373.82 332.48 381.17 330.15 388.97 329.5 396.86 330.84" stroke-dasharray="4 8" transform="rotate(80.92592592592592, 400, 400)" opacity="0.68"></path><path d="M394.74 342.22C401.01 343.55 406.76 346.27 411.78 350.03 416.81 353.89 421.13 358.72 424.56 364.15 428.04 369.62 430.68 375.65 432.31 381.9 434.06 388.16 434.87 394.64 434.55 401 433.8 410.16 427.61 424.33 422.44 429.01 416.56 432.68 401.24 434.81 392.12 433.22 385.88 432.01 379.77 429.82 374.09 426.9 368.43 424.2 363.22 420.7 358.77 416.58 352.58 410.24 345.23 394.48 344.71 385.29 344.96 379.02 346.59 372.92 349.31 367.29 352.12 361.7 355.98 356.63 360.6 352.42 365.27 348.33 370.66 345.17 376.45 343.26 382.26 341.53 388.46 341.1 394.74 342.22" stroke-dasharray="1 5" transform="rotate(84.44444444444444, 400, 400)" opacity="0.35"></path><path d="M392.87 353.59C402.24 355.68 410.15 361.76 415.44 369.76 420.84 377.89 423.84 387.71 423.32 397.22 423.18 406.72 419.6 414.06 413.83 418.29 408.2 422.61 400.12 424.06 390.79 421.84 381.46 420.14 372.68 415.29 366.14 408.7 359.75 402.4 355.82 393.94 355.94 384.54 356.38 375.14 360.83 366.59 367.59 360.58 374.48 354.82 383.49 351.99 392.87 353.59" stroke-dasharray="2 0" transform="rotate(87.96296296296296, 400, 400)" opacity="0.98"></path><path d="M391.35 364.97C403.8 367.88 412.85 380.97 412.09 393.61 411.99 406.24 402.32 413.5 389.91 410.47 377.49 408.34 367.08 397.24 367.17 384.71 367.85 372.17 378.89 362.93 391.35 364.97" stroke-dasharray="2 0" transform="rotate(91.48148148148148, 400, 400)" opacity="0.48"></path></g></svg>