<svg xmlns="http://www.w3.org/2000/svg" version="1.1" xmlns:xlink="http://www.w3.org/1999/xlink" xmlns:svgjs="http://svgjs.dev/svgjs" viewBox="0 0 800 800"><defs><symbol id="bbburst-shape-1" viewBox="0 0 194 167"><path d="m97 0 96.129 166.5H.871L97 0Z"></path></symbol><symbol id="bbburst-shape-3" viewBox="0 0 131 127"><path d="m66 0 66 63.5L66 127 0 63.5 66 0Z"></path></symbol><symbol id="bbburst-shape-4" viewBox="0 0 149 143"><path d="M71.647 2.781c.898-2.764 4.808-2.764 5.706 0l15.445 47.534a3 3 0 0 0 2.853 2.073h49.98c2.906 0 4.115 3.719 1.764 5.427L106.96 87.193a2.999 2.999 0 0 0-1.09 3.354l15.445 47.534c.898 2.764-2.266 5.062-4.617 3.354l-40.435-29.378a3 3 0 0 0-3.526 0l-40.435 29.378c-2.351 1.708-5.515-.59-4.617-3.354L43.13 90.547a3 3 0 0 0-1.09-3.354L1.605 57.815c-2.35-1.708-1.142-5.427 1.764-5.427h49.98a3 3 0 0 0 2.853-2.073L71.647 2.781Z"></path></symbol><symbol id="bbburst-shape-8" viewBox="0 0 87 168"><path d="m12 12 31.2546 18.0749c16.4102 9.4902 20.014 31.6325 7.4603 45.8369L36.3296 92.1884c-12.5684 14.2206-8.9394 36.3916 7.5068 45.8636L75 156" stroke-width="14" stroke-linecap="round" stroke-linejoin="round"></path></symbol><symbol id="bbburst-shape-10" viewBox="0 0 145 145"><circle cx="72.5" cy="72.5" r="61.5" fill="none" stroke-width="22"></circle></symbol></defs><use xlink:href="#bbburst-shape-3" width="21.195856214613404" opacity="0.5324352388580094" transform="matrix(0.9693779788721717,0.24557347999672824,-0.24557347999672824,0.9693779788721717,694.8948934976219,47.225991105020455)" fill="#a7c0d7"></use><use xlink:href="#bbburst-shape-4" width="30.753331578252364" opacity="0.16950662348405188" transform="matrix(0.9628165937211203,0.2701558936156294,-0.2701558936156294,0.9628165937211203,383.9965484429383,368.14206770752816)" fill="#303b45"></use><use xlink:href="#bbburst-shape-3" width="46.6647985103532" opacity="0.32043659973022576" transform="matrix(0.9095374208184953,0.41562203999648456,-0.41562203999648456,0.9095374208184953,259.7882264427484,137.0795266533715)" fill="#a7c0d7"></use><use xlink:href="#bbburst-shape-4" width="20.476857052094747" opacity="0.693359621463022" transform="matrix(0.9247803178962889,0.38050146337647484,-0.38050146337647484,0.9247803178962889,653.5286209165039,108.44880677693993)" fill="#303b45"></use><use xlink:href="#bbburst-shape-4" width="15.407264469576901" opacity="0.8377504138424163" transform="matrix(0.9596112713224194,0.28132935849457646,-0.28132935849457646,0.9596112713224194,526.2692943510083,-55.88505355642644)" fill="#5786b3"></use><use xlink:href="#bbburst-shape-8" width="37.71873267769286" opacity="0.18673409652027884" transform="matrix(0.7118967897696661,0.7022841025650828,-0.7022841025650828,0.7118967897696661,306.11375104343597,159.8123379750608)" fill="none" stroke="#cacce7"></use><use xlink:href="#bbburst-shape-3" width="19.016669907366175" opacity="0.9112742927505126" transform="matrix(0.9040412143386387,0.42744529799392983,-0.42744529799392983,0.9040412143386387,522.5457247088168,30.765298144762312)" fill="#a7c0d7"></use><use xlink:href="#bbburst-shape-4" width="35.90738656674117" opacity="0.40042536650686356" transform="matrix(0.8898425760624447,0.45626767344022134,-0.45626767344022134,0.8898425760624447,601.5648126255394,-231.62221685317797)" fill="#9c9fd2"></use><use xlink:href="#bbburst-shape-10" width="14.349607681942693" opacity="0.8544669062478699" transform="matrix(0.8389748502616282,-0.5441701945425517,0.5441701945425517,0.8389748502616282,241.77743747357624,70.12001720171747)" fill="none" stroke="#cacce7"></use><use xlink:href="#bbburst-shape-10" width="34.7585275841242" opacity="0.5053839630179497" transform="matrix(0.9802868308067765,-0.19757967847632085,0.19757967847632085,0.9802868308067765,470.52971148385905,-136.28053366074127)" fill="none" stroke="#303b45"></use><use xlink:href="#bbburst-shape-10" width="12.540820441221529" opacity="0.906678857892651" transform="matrix(0.9996380830786691,0.026901725944704545,-0.026901725944704545,0.9996380830786691,425.41156050769507,-36.43729732802501)" fill="none" stroke="#cacce7"></use><use xlink:href="#bbburst-shape-10" width="40.978256459530094" opacity="0.33413895613027855" transform="matrix(0.943100496831579,-0.33250782378168015,0.33250782378168015,0.943100496831579,350.2951856810408,311.08887675755324)" fill="none" stroke="#cacce7"></use><use xlink:href="#bbburst-shape-10" width="31.60325995360975" opacity="0.008568548346179483" transform="matrix(0.9652691755116787,0.26125738038762464,-0.26125738038762464,0.9652691755116787,753.2947359938253,369.3819595104301)" fill="none" stroke="#303b45"></use><use xlink:href="#bbburst-shape-10" width="20.32191925414564" opacity="0.7549258907493845" transform="matrix(0.8787856076211046,0.4772167807590237,-0.4772167807590237,0.8787856076211046,642.4096617622915,135.87528360259967)" fill="none" stroke="#9c9fd2"></use><use xlink:href="#bbburst-shape-8" width="27.717929266068666" opacity="0.5764486289562694" transform="matrix(0.994026837747124,-0.10913590535865322,0.10913590535865322,0.994026837747124,377.5640081872594,-183.4562180484855)" fill="none" stroke="#303b45"></use><use xlink:href="#bbburst-shape-1" width="19.245086237805808" opacity="0.7592212660307127" transform="matrix(0.9683772382999281,0.24949052956496043,-0.24949052956496043,0.9683772382999281,382.1671292741355,7.122829239676264)" fill="#9c9fd2"></use><use xlink:href="#bbburst-shape-10" width="31.639670229374104" opacity="0.20339320099035707" transform="matrix(0.9863791463947128,-0.16448762736947042,0.16448762736947042,0.9863791463947128,46.13088591078191,-224.8941037447434)" fill="none" stroke="#9c9fd2"></use><use xlink:href="#bbburst-shape-4" width="28.438281176777803" opacity="0.11301504149802588" transform="matrix(0.9999999267077857,0.00038286345241147715,-0.00038286345241147715,0.9999999267077857,209.4023189022497,-357.9627139714605)" fill="#a7c0d7"></use><use xlink:href="#bbburst-shape-8" width="42.191027498974584" opacity="-0.05528699063167153" transform="matrix(0.8029880222431208,-0.595995164522399,0.595995164522399,0.8029880222431208,-177.04832210408392,-257.9250366440102)" fill="none" stroke="#a7c0d7"></use><use xlink:href="#bbburst-shape-4" width="30.06223609697791" opacity="0.3169849400733813" transform="matrix(0.9286605201624559,0.37093077290998233,-0.37093077290998233,0.9286605201624559,451.2958011316084,-272.92199681432)" fill="#9c9fd2"></use><use xlink:href="#bbburst-shape-1" width="19.612700084504038" opacity="0.6852831608022989" transform="matrix(0.7993192808012068,-0.6009065545818596,0.6009065545818596,0.7993192808012068,290.8634495480319,113.05993359745543)" fill="#303b45"></use><use xlink:href="#bbburst-shape-4" width="30.8623863849268" opacity="0.07742079249396927" transform="matrix(0.9964074097250912,-0.08468927821710463,0.08468927821710463,0.9964074097250912,559.557549157657,-356.05700000315966)" fill="#a7c0d7"></use><use xlink:href="#bbburst-shape-8" width="41.48677895549719" opacity="0.288070239780465" transform="matrix(0.9556143592872172,-0.2946204275403887,0.2946204275403887,0.9556143592872172,423.5858058700186,-252.95951676746898)" fill="none" stroke="#cacce7"></use><use xlink:href="#bbburst-shape-8" width="13.466092487819074" opacity="0.9280686470030193" transform="matrix(0.9999946913354316,0.0032584200089735616,-0.0032584200089735616,0.9999946913354316,426.5882580585003,-4.775157785329554)" fill="none" stroke="#5786b3"></use><use xlink:href="#bbburst-shape-4" width="40.791471726064835" opacity="0.1882467414253668" transform="matrix(0.9978953999346668,-0.06484420397561683,0.06484420397561683,0.9978953999346668,696.2819605364622,-124.61249114451908)" fill="#303b45"></use><use xlink:href="#bbburst-shape-4" width="16.298460168951042" opacity="0.841717827739775" transform="matrix(0.9826355721296015,-0.1855460384528072,0.1855460384528072,0.9826355721296015,303.61834083742707,78.27801068366864)" fill="#9c9fd2"></use><use xlink:href="#bbburst-shape-10" width="44.78132356110601" opacity="-0.0650678774132889" transform="matrix(0.8109703056844987,-0.5850873125423169,0.5850873125423169,0.8109703056844987,501.8904638122773,411.72114052263896)" fill="none" stroke="#cacce7"></use><use xlink:href="#bbburst-shape-8" width="36.79045995753914" opacity="0.5400336303421063" transform="matrix(0.844808621710555,0.5350685868965888,-0.5350685868965888,0.844808621710555,516.7118931839893,242.38002015188488)" fill="none" stroke="#a7c0d7"></use><use xlink:href="#bbburst-shape-4" width="36.82401343038488" opacity="0.09167253642331841" transform="matrix(0.809906384187943,0.586559160572582,-0.586559160572582,0.809906384187943,982.4179484777229,253.69059462133492)" fill="#303b45"></use><use xlink:href="#bbburst-shape-4" width="30.65568489942309" opacity="0.7060428100308324" transform="matrix(0.9925301391389361,0.12199968401944385,-0.12199968401944385,0.9925301391389361,385.50006431230105,124.37792050991266)" fill="#9c9fd2"></use><use xlink:href="#bbburst-shape-10" width="40.08182332852053" opacity="0.08753632179198945" transform="matrix(0.9459077811384625,0.32443561700545537,-0.32443561700545537,0.9459077811384625,286.3562789718284,358.9614394415333)" fill="none" stroke="#cacce7"></use><use xlink:href="#bbburst-shape-3" width="44.57471944045936" opacity="0.3680513821437168" transform="matrix(0.873255198598524,-0.4872631302701369,0.4872631302701369,0.873255198598524,-63.863042067927495,-75.09430003046879)" fill="#303b45"></use><use xlink:href="#bbburst-shape-1" width="35.115285905035186" opacity="0.14247582625328126" transform="matrix(0.995836488130121,0.09115749507674754,-0.09115749507674754,0.995836488130121,564.2139088317817,357.61991475494955)" fill="#5786b3"></use><use xlink:href="#bbburst-shape-4" width="19.853739074449294" opacity="0.693132951522111" transform="matrix(0.9175088225500887,0.3977154265838199,-0.3977154265838199,0.9175088225500887,680.4679534912171,-16.09520158048872)" fill="#9c9fd2"></use><use xlink:href="#bbburst-shape-8" width="26.71942798485347" opacity="0.5775369935521184" transform="matrix(0.998843259750125,-0.04808474240072709,0.04808474240072709,0.998843259750125,538.1453158216718,84.73930841785761)" fill="none" stroke="#5786b3"></use><use xlink:href="#bbburst-shape-4" width="22.77815178016694" opacity="0.7507397494238734" transform="matrix(0.9943267463226843,0.1063687996893087,-0.1063687996893087,0.9943267463226843,442.6923131299349,112.65736695874)" fill="#5786b3"></use><use xlink:href="#bbburst-shape-3" width="34.18792449432876" opacity="0.20953552959516197" transform="matrix(0.9886709681278961,0.15009902325148095,-0.15009902325148095,0.9886709681278961,464.30208963021335,357.0174591852253)" fill="#a7c0d7"></use><use xlink:href="#bbburst-shape-3" width="27.81390233713294" opacity="0.5582760558738521" transform="matrix(0.9117453615430414,0.41075588334769936,-0.41075588334769936,0.9117453615430414,733.8903974055133,-49.54283912706779)" fill="#303b45"></use><use xlink:href="#bbburst-shape-10" width="23.069167265398736" opacity="0.5560380459836922" transform="matrix(0.8812476052728373,-0.4726549039213383,0.4726549039213383,0.8812476052728373,341.71825781920086,194.54271304669612)" fill="none" stroke="#5786b3"></use><use xlink:href="#bbburst-shape-1" width="13.432906125716816" opacity="0.7739371124030419" transform="matrix(0.9399116429242426,-0.3414177843865945,0.3414177843865945,0.9399116429242426,343.9291805052019,-26.700927952772986)" fill="#303b45"></use><use xlink:href="#bbburst-shape-3" width="25.377841606525998" opacity="0.1814357160783805" transform="matrix(0.8895952811440463,0.456749642327441,-0.456749642327441,0.8895952811440463,938.4626686176617,8.404687463645246)" fill="#303b45"></use><use xlink:href="#bbburst-shape-1" width="26.90089190538504" opacity="0.6270237716493217" transform="matrix(0.9907302617911881,-0.13584383817885895,0.13584383817885895,0.9907302617911881,165.90893881188026,-16.11613560123044)" fill="#a7c0d7"></use><use xlink:href="#bbburst-shape-1" width="39.66151088225787" opacity="0.19942609360982577" transform="matrix(0.9931705770249836,-0.11667135437570449,0.11667135437570449,0.9931705770249836,559.4289883426891,285.82078772023425)" fill="#9c9fd2"></use><use xlink:href="#bbburst-shape-4" width="18.760712054949746" opacity="0.652317531535396" transform="matrix(0.8692792099275866,0.49432140878953534,-0.49432140878953534,0.8692792099275866,657.3106673576401,188.69627564802516)" fill="#303b45"></use><use xlink:href="#bbburst-shape-4" width="12.310971308977107" opacity="0.9774737816237902" transform="matrix(0.9418578920816321,0.33601147469029186,-0.33601147469029186,0.9418578920816321,526.1000878882348,11.376175986879673)" fill="#9c9fd2"></use><use xlink:href="#bbburst-shape-8" width="17.628732975703123" opacity="0.7859444833836137" transform="matrix(0.8557999688446893,-0.5173068850551178,0.5173068850551178,0.8557999688446893,172.21324761933667,-33.15974245829068)" fill="none" stroke="#a7c0d7"></use><use xlink:href="#bbburst-shape-3" width="34.450596067421735" opacity="0.3727339570162136" transform="matrix(0.9994008722854142,-0.03461064106822163,0.03461064106822163,0.9994008722854142,641.8597282630631,72.39237226737907)" fill="#303b45"></use><use xlink:href="#bbburst-shape-8" width="44.65950418700167" opacity="0.14603633703652952" transform="matrix(0.7879999581862056,0.6156752925841172,-0.6156752925841172,0.7879999581862056,898.5127731435443,-202.5554584421772)" fill="none" stroke="#9c9fd2"></use><use xlink:href="#bbburst-shape-4" width="47.76654990235407" opacity="-0.08167357205890058" transform="matrix(0.9286040454350524,-0.37107213153463203,0.37107213153463203,0.9286040454350524,571.0190248098074,-309.2826483656979)" fill="#303b45"></use><use xlink:href="#bbburst-shape-8" width="32.79216529946807" opacity="0.4635857665692865" transform="matrix(0.8920751117227839,-0.4518871485722764,0.4518871485722764,0.8920751117227839,20.339872467616146,206.4917544608153)" fill="none" stroke="#a7c0d7"></use><use xlink:href="#bbburst-shape-3" width="33.61941063589026" opacity="0.2845464438867523" transform="matrix(0.9617415073760497,-0.27395852421496886,0.27395852421496886,0.9617415073760497,-46.57470235136633,-8.430937920116833)" fill="#303b45"></use><use xlink:href="#bbburst-shape-4" width="37.329604061793816" opacity="0.2128514651277974" transform="matrix(0.9627671457320421,0.27033206080481237,-0.27033206080481237,0.9627671457320421,777.9152008480735,216.43009672107723)" fill="#cacce7"></use><use xlink:href="#bbburst-shape-1" width="30.723374694476316" opacity="0.40476272147970327" transform="matrix(0.8047767551480391,-0.593577606024177,0.593577606024177,0.8047767551480391,380.6188592226297,223.87078098513103)" fill="#303b45"></use><use xlink:href="#bbburst-shape-3" width="38.69982077322069" opacity="0.4620730492709223" transform="matrix(0.8015881965994563,-0.5978765450094453,0.5978765450094453,0.8015881965994563,3.0228559203897873,-104.87701908706504)" fill="#9c9fd2"></use><use xlink:href="#bbburst-shape-8" width="40.45188036220938" opacity="0.06712399535261648" transform="matrix(0.999971236668136,-0.007584578854397541,0.007584578854397541,0.999971236668136,731.56638973329,-224.16961734114778)" fill="none" stroke="#a7c0d7"></use><use xlink:href="#bbburst-shape-4" width="27.741509980843887" opacity="0.3857811331699206" transform="matrix(0.9493993196254633,0.3140715394535254,-0.3140715394535254,0.9493993196254633,691.6902356862262,226.31141918384174)" fill="#a7c0d7"></use><use xlink:href="#bbburst-shape-8" width="23.974983152334115" opacity="0.48118459301911354" transform="matrix(0.8651558480972061,0.5015030991960109,-0.5015030991960109,0.8651558480972061,822.2532472463612,22.000797039075394)" fill="none" stroke="#5786b3"></use><use xlink:href="#bbburst-shape-10" width="16.14987104550103" opacity="0.8321560474639511" transform="matrix(0.7106253542830555,0.7035706118436741,-0.7035706118436741,0.7106253542830555,607.9063686959126,76.74997599094644)" fill="none" stroke="#5786b3"></use><use xlink:href="#bbburst-shape-10" width="18.042826054470854" opacity="0.8184113738638953" transform="matrix(0.814813041156194,0.579723820419512,-0.579723820419512,0.814813041156194,548.6148413190635,99.05875881889597)" fill="none" stroke="#9c9fd2"></use><use xlink:href="#bbburst-shape-10" width="13.848925280928718" opacity="0.8536878284638855" transform="matrix(0.9865876142469062,-0.1632325929910987,0.1632325929910987,0.9865876142469062,383.8111053778251,-28.234584672005496)" fill="none" stroke="#5786b3"></use><use xlink:href="#bbburst-shape-4" width="30.121517207785793" opacity="0.5042188202099953" transform="matrix(0.8864435247613336,-0.46283677188475736,0.46283677188475736,0.8864435247613336,153.98660243808706,-165.55992147266033)" fill="#5786b3"></use><use xlink:href="#bbburst-shape-8" width="17.335246533503753" opacity="0.8850367668750537" transform="matrix(0.9137895908766583,0.4061878673784697,-0.4061878673784697,0.9137895908766583,532.9554229338293,-16.045230676891094)" fill="none" stroke="#cacce7"></use><use xlink:href="#bbburst-shape-3" width="29.291616015742704" opacity="0.6157990672555922" transform="matrix(0.9896704465117449,0.14336110804972002,-0.14336110804972002,0.9896704465117449,444.4968978444842,174.897639851735)" fill="#cacce7"></use><use xlink:href="#bbburst-shape-10" width="30.31869229446417" opacity="0.6617209832585188" transform="matrix(0.9871087363499076,-0.16005106254470328,0.16005106254470328,0.9871087363499076,293.2933321060878,-142.09721035783684)" fill="none" stroke="#303b45"></use><use xlink:href="#bbburst-shape-8" width="30.076836802337233" opacity="0.47283598548387584" transform="matrix(0.8029657866083479,0.5960251215648859,-0.5960251215648859,0.8029657866083479,390.56127490133935,43.658416358030536)" fill="none" stroke="#9c9fd2"></use><use xlink:href="#bbburst-shape-4" width="43.29553969814304" opacity="0.09560825833916764" transform="matrix(0.9934723601011167,-0.1140730893555404,0.1140730893555404,0.9934723601011167,-21.564425466151903,205.13665039130677)" fill="#a7c0d7"></use><use xlink:href="#bbburst-shape-3" width="30.376767147280304" opacity="0.5088952185782749" transform="matrix(0.7928534801354714,0.6094123062730779,-0.6094123062730779,0.7928534801354714,721.2425171576842,275.5455471944231)" fill="#303b45"></use><use xlink:href="#bbburst-shape-10" width="32.863141977069205" opacity="0.3364493610064542" transform="matrix(0.8060472270709321,-0.5918512209426124,0.5918512209426124,0.8060472270709321,447.92502526081694,67.05299114722038)" fill="none" stroke="#9c9fd2"></use><use xlink:href="#bbburst-shape-8" width="22.944264575299695" opacity="0.7684722583401471" transform="matrix(0.8975665122429037,-0.4408790719688443,0.4408790719688443,0.8975665122429037,154.0642438861696,-39.64300008811563)" fill="none" stroke="#a7c0d7"></use><use xlink:href="#bbburst-shape-1" width="39.01413962566595" opacity="0.45239644807703183" transform="matrix(0.7636474773401375,0.6456334334218172,-0.6456334334218172,0.7636474773401375,657.1792897651127,328.01678623603294)" fill="#cacce7"></use><use xlink:href="#bbburst-shape-3" width="17.43553948067502" opacity="0.8038961725090948" transform="matrix(0.9183672284607347,0.3957292429039692,-0.3957292429039692,0.9183672284607347,620.4916426870409,82.56235806412559)" fill="#9c9fd2"></use><use xlink:href="#bbburst-shape-8" width="18.759285512262057" opacity="0.6609200630241475" transform="matrix(0.9883837750906461,0.1519786601387285,-0.1519786601387285,0.9883837750906461,570.1689741265886,-92.72212788763073)" fill="none" stroke="#9c9fd2"></use><use xlink:href="#bbburst-shape-10" width="51.5515477830923" opacity="0.16986586462569686" transform="matrix(0.7255378477969016,0.6881822661288506,-0.6881822661288506,0.7255378477969016,302.89970163437175,-28.217988102949334)" fill="none" stroke="#a7c0d7"></use><use xlink:href="#bbburst-shape-10" width="20.47168038500719" opacity="0.7624251120723416" transform="matrix(0.8916676127146506,-0.4526906984197444,0.4526906984197444,0.8916676127146506,272.79135596073,-38.41131665542247)" fill="none" stroke="#5786b3"></use><use xlink:href="#bbburst-shape-8" width="30.254630057460584" opacity="0.6410488311944773" transform="matrix(0.9984290040520084,-0.056031454270923944,0.056031454270923944,0.9984290040520084,245.01347775409903,112.34532945860065)" fill="none" stroke="#9c9fd2"></use><use xlink:href="#bbburst-shape-10" width="17.350144377463735" opacity="0.7723114860536971" transform="matrix(0.7745566918361192,0.6325044909974056,-0.6325044909974056,0.7745566918361192,748.0552456821674,72.84473755746234)" fill="none" stroke="#cacce7"></use><use xlink:href="#bbburst-shape-8" width="37.53175544887695" opacity="0.19691864675730875" transform="matrix(0.8976113890788704,0.44078769741895096,-0.44078769741895096,0.8976113890788704,533.0825110689602,-327.738242260245)" fill="none" stroke="#9c9fd2"></use><use xlink:href="#bbburst-shape-10" width="14.926286039112098" opacity="0.7784262311168197" transform="matrix(0.9936861494004853,0.11219552793955909,-0.11219552793955909,0.9936861494004853,532.9451399917754,30.40633060385312)" fill="none" stroke="#a7c0d7"></use><use xlink:href="#bbburst-shape-10" width="28.03566928247727" opacity="0.6656878525241869" transform="matrix(0.9933018529818779,0.11554838321139708,-0.11554838321139708,0.9933018529818779,289.9817509621473,49.83611231395139)" fill="none" stroke="#5786b3"></use><use xlink:href="#bbburst-shape-1" width="25.680589746700136" opacity="0.7037177211431334" transform="matrix(0.8965040140316047,0.44303561123821666,-0.44303561123821666,0.8965040140316047,450.49849689986377,-31.3980135634676)" fill="#9c9fd2"></use><use xlink:href="#bbburst-shape-8" width="29.807232714139467" opacity="0.2717024537752757" transform="matrix(0.9997058256709983,0.024254115516082867,-0.024254115516082867,0.9997058256709983,204.53739359307966,-267.093439657356)" fill="none" stroke="#9c9fd2"></use><use xlink:href="#bbburst-shape-10" width="20.82470160186234" opacity="0.6193664070492985" transform="matrix(0.8548716789816735,-0.518839486233512,0.518839486233512,0.8548716789816735,273.84851156684533,-82.10427503664482)" fill="none" stroke="#9c9fd2"></use><use xlink:href="#bbburst-shape-10" width="12.984010903875198" opacity="0.8798571213216011" transform="matrix(0.9979659675446461,-0.06374894212987665,0.06374894212987665,0.9979659675446461,414.0238294138451,29.630728749757168)" fill="none" stroke="#9c9fd2"></use><use xlink:href="#bbburst-shape-3" width="57.61882024956142" opacity="-0.0635003507704397" transform="matrix(0.960688102812654,0.277629913939805,-0.277629913939805,0.960688102812654,141.4439367929718,342.7201294013868)" fill="#a7c0d7"></use><use xlink:href="#bbburst-shape-4" width="15.747439194738519" opacity="0.9371127478140656" transform="matrix(0.8196680755023477,0.5728387609111989,-0.5728387609111989,0.8196680755023477,635.0727882203394,93.07236915803668)" fill="#cacce7"></use><use xlink:href="#bbburst-shape-3" width="28.333915076330214" opacity="0.38849482671800795" transform="matrix(0.9345512632127518,-0.35582852109892754,0.35582852109892754,0.9345512632127518,497.3660567952668,-76.88069702991697)" fill="#303b45"></use><use xlink:href="#bbburst-shape-8" width="48.180135238428505" opacity="0.3450041508332231" transform="matrix(0.9769682189064807,0.21338486180303137,-0.21338486180303137,0.9769682189064807,311.10043218263104,257.37139208601974)" fill="none" stroke="#cacce7"></use><use xlink:href="#bbburst-shape-4" width="38.96567823297114" opacity="0.19745632545133496" transform="matrix(0.8268329061143833,0.5624476378885802,-0.5624476378885802,0.8268329061143833,695.3749782788648,-292.2884515447042)" fill="#a7c0d7"></use><use xlink:href="#bbburst-shape-4" width="32.510628660311255" opacity="0.5037868229239326" transform="matrix(0.7147141337704953,-0.6994166905276786,0.6994166905276786,0.7147141337704953,-105.623113885182,188.38628747141155)" fill="#5786b3"></use><use xlink:href="#bbburst-shape-4" width="45.49489048227439" opacity="0.19470869798843204" transform="matrix(0.8867083685534999,0.4623291783320523,-0.4623291783320523,0.8867083685534999,918.2994444493221,114.3178750343929)" fill="#9c9fd2"></use><use xlink:href="#bbburst-shape-10" width="34.75448707867927" opacity="0.03500231081814287" transform="matrix(0.9078894830637922,-0.4192095973879416,0.4192095973879416,0.9078894830637922,-143.51624708680902,-198.63017425326245)" fill="none" stroke="#303b45"></use><use xlink:href="#bbburst-shape-10" width="28.6550120767787" opacity="0.45822772514080556" transform="matrix(0.8604283011393761,0.5095715245168309,-0.5095715245168309,0.8604283011393761,709.7860413354563,-164.65248794367633)" fill="none" stroke="#a7c0d7"></use><use xlink:href="#bbburst-shape-10" width="37.53941593041364" opacity="0.3522253342361461" transform="matrix(0.8442273166316291,-0.5359852963029481,0.5359852963029481,0.8442273166316291,114.38720329905755,358.5603738793323)" fill="none" stroke="#a7c0d7"></use><use xlink:href="#bbburst-shape-8" width="15.817511517948606" opacity="0.9148552066845176" transform="matrix(0.7508319904556215,-0.6604932415312434,0.6604932415312434,0.7508319904556215,106.10914528237083,134.95301786595866)" fill="none" stroke="#a7c0d7"></use><use xlink:href="#bbburst-shape-4" width="21.936960281870963" opacity="0.6208135692200848" transform="matrix(0.9865876278022764,-0.16323251106160497,0.16323251106160497,0.9865876278022764,493.7714543616278,-8.81952977011531)" fill="#a7c0d7"></use><use xlink:href="#bbburst-shape-10" width="31.245688268318425" opacity="0.6295667008128346" transform="matrix(0.8693643423691629,0.49417167079571933,-0.49417167079571933,0.8693643423691629,489.3372268461307,-92.61475480673977)" fill="none" stroke="#303b45"></use><use xlink:href="#bbburst-shape-8" width="20.377802631845945" opacity="0.7891568854347843" transform="matrix(0.9941248507433333,0.10823946200228969,-0.10823946200228969,0.9941248507433333,369.20555283140095,71.32620486498922)" fill="none" stroke="#a7c0d7"></use><use xlink:href="#bbburst-shape-4" width="32.03366960830174" opacity="0.32420103637851827" transform="matrix(0.9412114343579607,-0.33781805137356125,0.33781805137356125,0.9412114343579607,484.6669837173965,-164.2394594668074)" fill="#303b45"></use><use xlink:href="#bbburst-shape-10" width="43.9320771801854" opacity="0.23468063764473313" transform="matrix(0.9599403896240587,-0.2802042975552131,0.2802042975552131,0.9599403896240587,10.969738952115335,252.7030792470843)" fill="none" stroke="#303b45"></use><use xlink:href="#bbburst-shape-4" width="30.318586687433537" opacity="0.545814451728496" transform="matrix(0.9161196169402391,-0.40090503546010675,0.40090503546010675,0.9161196169402391,52.00707193345673,-67.96532936300474)" fill="#9c9fd2"></use><use xlink:href="#bbburst-shape-10" width="16.896495306575815" opacity="0.8488653014046939" transform="matrix(0.8759064864579225,0.4824809084108274,-0.4824809084108274,0.8759064864579225,612.5739840356989,107.99078773213506)" fill="none" stroke="#9c9fd2"></use><use xlink:href="#bbburst-shape-1" width="21.030365244981148" opacity="0.7178610848726965" transform="matrix(0.841001198170842,0.5410332565334669,-0.5410332565334669,0.841001198170842,638.5198668884677,-65.19545988105654)" fill="#303b45"></use></svg>